<mxfile host="app.diagrams.net" modified="2024-03-05T06:58:28.920Z" agent="Mozilla/5.0 (Windows NT 10.0; Win64; x64) AppleWebKit/537.36 (KHTML, like Gecko) Chrome/122.0.0.0 Safari/537.36" etag="ytX5hNRMn06EVTY9hPlH" version="24.0.1" type="github">
  <diagram name="第 1 页" id="UgVEe_6qKmYHvgXrQqHg">
    <mxGraphModel dx="1434" dy="790" grid="1" gridSize="10" guides="1" tooltips="1" connect="1" arrows="1" fold="1" page="1" pageScale="1" pageWidth="827" pageHeight="1169" math="0" shadow="0">
      <root>
        <mxCell id="0" />
        <mxCell id="1" parent="0" />
        <mxCell id="1wzXo89r5gNJeneBMZ44-1" value="" style="shape=image;verticalLabelPosition=bottom;labelBackgroundColor=default;verticalAlign=top;aspect=fixed;imageAspect=0;image=data:image/png,iVBORw0KGgoAAAANSUhEUgAAAywAAAFICAYAAACydHr4AAAgAElEQVR4Aezdh7dsRZU/8N+/85sf8HQEQVBkzYxrDKOoCChKDkqOIjAiRlR0RkRwzI5pMJGTymDEMYABUcljQJSck+jM+a1P8fZ99fqe27f79Om+/W7vWqu6zqlT8bt3Ve1v1enu/9OkSwQSgUQgEUgEEoFEIBFIBBKBRGBOEfg/c9qubFYikAgkAolAIpAIJAKJQCKQCCQCTRKWVIJEIBFIBBKBRCARSAQSgUQgEZhbBJKwzK1osmGJQCKQCCQCiUAikAgkAolAIpCEJXUgEUgEEoFEIBFIBBKBRCARSATmFoEkLHMrmmxYIpAIJAKJQCKQCCQCiUAikAgkYUkdSAQSgUQgEUgEEoFEIBFIBBKBuUUgCcvciiYblggkAolAIpAIJAKJQCKQCCQCSVhSBxKBRCARSAQSgUQgEUgEEoFEYG4RSMIyt6LJhiUCiUAikAgkAolAIpAIJAKJQBKW1IFEIBFIBBKBRCARSAQSgUQgEZhbBJKwzK1osmGJQCKQCCQCiUAikAgkAolAIpCEJXUgEUgEEoFEIBFIBBKBRCARSATmFoEkLHMrmmxYIpAIJAKJQCKQCCQCiUAikAgkYUkdSAQSgUQgEUgEEoFEIBFIBBKBuUUgCcvciiYblggkAolAIpAIJAKJQCKQCCQCSVhSBxKBRCARSAQSgUQgEUgEEoFEYG4RSMIyt6LJhiUCiUAikAgkAolAIpAIJAKJQBKW1IFEIBFIBBKBRCARSAQSgUQgEZhbBJKwzK1osmGJQCKQCCQCiUAikAgkAolAIrDuCcv//M//NCt54n/44Yeb//3f/x1LEx566KHm8ccfb/7617+WfPKHH6wryhY+9thjK7ZFvigjQoWrh4u41cKSuGmaJ598Mi5HzvvHP/6x9KmtX3W90UcVaN+f//znkeuIRtXti7jVwqhntXT1c3nIeBSnj+EeeeSRobIKDCKUV5/ccxG/WigtvajrjjYMC++7776Ce8hqWNr6GTzaXC3fuI50jz76aLmMeOGwfkmsXVHXYNq6nMHrO++8s+QVzw0+r+9Lgo26/pe//GVo2sF82hTtq58Nu1ZfjMfV2laXQ5fMGdo4jqMX47ro07j5uoxHOjiqgzf31FNPNU888cRQ/an1JXCEIVc/G3YddY2LOb295557Sj3qHtWthF+0fzBUrrZF++rnq/ULFpF+MG3ED4b0jz7FfDH4vL6v+xxzU/18pevIF2NkpXSD8ZGvxnAwzUr3d9xxR+lT4BhlDQvp4Djpoyx6O65Tl7aP44zhWa5ZoRPjtNGaMG6/7r///s3WrJVkWpfrml4MS1s/iz7E3Fk/G3Ytn7FEXtxg2ii3LbzrrrtWxGKlcsiYDg4+X+m+rd5FjEvCkoRladAkYdm0sCRh2YRFEpanNyQsEGGMuV5pcRmMT8LytDEAsyQsm3SJwRKGc60zgySkvodhEpZNG4RJWDbN013XrCQsT2OYhMXsMt8uCUsSliXDKwnL5JO/SY+rjYxh19LGLuY4U0WesGySlR24cXeryCROI2pjcdg1+SRh2aSlecKyCYv6dGBT7MqkVpokLJvIGzxqDIeNw/pZEpZN82ASlk1Y5AlLPQutn+t1T1jqyc1OAkMlQmKM1xPGEamjTZMDp/xhBqnnkY6BtFraaG/JtHFHMvLHs2Fh5Iudu3Hy/v73v18y/LRzpXrqMuEXx6hRd1sYZcWzUfJE2gjDKI37UUKL4AMPPLBqUu2LPgtDL4bJq34mv/bVZdTPV7rWMHoh/zju7rvvLm2UZ6WyIz7Kpvcr6aBngz7yx6sQg8/D4BoMpROnrriu0wyWU98zQNQb/aqf1dfSRL/Uo/z6+bBr+TyXjxuWtn4mLX2Kuutnw6693vHggw+WutS9mpdQGnWtlrZ+Ll+Mqzp+tWv5YLFausHnXp2q3eDzuIcXfITq0a9heNXP5OGDKNbPhl2rO3RO/mjLaiH8vOIxrpNP2VzUUV9HXISeRfsH00Wf20JpY25S1mCaKH8wNAfG68+j4KEebhy92JhlaVwNtmGl+8hHXtxK6driB9esKGswlDccWcF+FBf5YBbzxTj51BV4j5JPmlHXLGlDh2AXr2kN4hQ6UqeN+VKfRsWibj/7J8qr44dd33vvvUtrljZG/rZQmznPoo1t6Qbjoq8rrVmD6eM+2hPyUk48Ew5iWt/b6HXP1fGu6zKUGen0KWRQp4nr6H+EpfD8aBaKsIQCUQLKEp6SiBvV21n0TjBH8UJJt3R9YizChIPJKM4An2dHPrETHJPFsPbSgS1BnkizhY0bV39rPY++dgnrcsa5HlZX7JjqF10clnZLeWa3LzY49Gu1dhehbgEfCEvMExG2NVt/PSfP0NXAoC39WsZpX8wXa9mOvutGWII0x7zRdx1rUV5tLJqDhrnQOeG4LvJ2zTdOndbU0MHV8umzcSVPrN3D2qi8eq7u0i9jxJwWdQ+rr35G/8JeiHq3lLDux+B1vWbBpnaT9E85ZLqaXtf1rffrdU9Y7MyFN8jiy4fnnXdec8oppzRvetObxvbHHntsc8IJJ5T8J554YnP88ceX+ze+8Y1N7T0bx3dpS195tPPwww8vfXGtf8K28k866aQSL83RRx9d0oob5gfLGQeXSdKSDXmdfPLJpX0rlUVu+iN9+JDlSnnWKl674K6d+jVJOwflMur9JH1fqQ79OOKII0p/pHG/UtotJR5Oxx13XNFB48N9yKstnATXWeelg+o0j+rLSvV7FmNLyA9Lv1I5s4g3po466qilvkRb22Q1LG6Stg4rd9izYXUec8wxRQdjXA1Lu6U8g8WRRx5ZZFXPg20YRZ9i3nAvXcSPEsob6cbJO24+OjjOmlWPrbrv0da+Q3UY+/qlrYHpsFAb6KC2mi/6btO0y1upb7AYtmZ1bZe14gMf+EBz++23L200rHcyMkr/1j1hqUHAfmN3yUT3rGc9q3nmM585tv/bv/3bklfIb9iwodlmm21K6Jp/xjOe0ancKHMtQlhot/a7XqkNcIt+/83f/E1JL26YHyyrC+5d8kS9q+WNfpNj+K5yXK2uPp7X/XIN+2233XZsv9122zVdfJe6Is9K9ekDOWy99dbFw2mltFtSvH6TUcg9ZLdSOGwczdMz/TFGjBdyCz0cbKN4z8PLF30fTLvW99FW/Zp0/Ecfxw1DT7qEw+qCf92nYWm3lGcxp2hv6GPIrq2v9CvGY+jjSmHoaeSRz/VK6SM+5KZNdV7xkWZYGPmHpfGsrby2OGnrtsTcGdhpY+C3Uv66LfKZo5UT7Yg2DwujDdKoc0vygdVgqE/0bKuttioeHnWarn1Uxs4779zceOONS6dStS27qNcLRVhqIR9wwAFlwHiv0us1vhPgehTvuJZfKa1XJbr4KHctw+jTKG2ItMKV0nv21re+tUxu11xzzVK6Ou80r6Nd06xj1mVHn4Tqru/Hvab7Xfy49YyafhDLUfPNczr4ap85YVJ5zVs/a3kNa9uo6YaVMYtnISvtDXnVbR/1Wlu7jCt5Rq1jMN1q+IybfrXy5vH5YB/jvq2t8WxYOOt82qLOYW3q8qytH4Nxo5Yb7YtwlHx1XdLX91v69WD/6/50nQPYTMjQrbfeWputC3+9sIRl//33L4QlNGDw3cOI7xJ2fW+xS13zngcW73nPe5pnP/vZzS233DLvzc32JQJTQyDmhalVkAX3hkDKqjcos6BEIBEYEwE2k5Oo2267bcyc6zt5EpaN8k3CMh1FT8IyHVyz1C0PAWMh3ZaDQMpry5FVtjQRWE8IJGFpl2YSlo24JGFpV5BJY5OwTIpg5l8vCKQBvGVJMuW1ZckrW5sIrBcEkrC0SzIJy0ZckrC0K8iksUlYJkUw868XBNIA3rIkmfLasuSVrU0E1gsCSVjaJZmEZSMuSVjaFWTS2CQskyKY+ROBRCARSAQSgURgURBIwtIu6SQsG3FJwtKuIJPGJmGZFMHMv2gI5M7+2ko88V9b/LP2RGDREUjC0q4BC0VY6oVov/32K7+XHbDkv4kGEv2GkxIW//Q6yj/49tvqxSktsI2xITQW4n5xkFjbnoYctCKwf+KJJ4ruxxgYFtpwST8aBvEP3SttUtXxMR7kGdfL28WPW8+Wmv7RRx9dddCRRRcMM89w3QudWVUAmWBNEHj3u99d/uMmf9Z4c/iTsGzEwwSXrn8E4Gq3YNyfNZbvqaeeWjLe+m9ZlgiBP//5z8v+mMpiFtjHwpbh+AbrKJjVWkgWkQc5GcdYq8vJ69URiPkezjCvnfsa//pZXveDAHz9iTOsH3/88aGFxpjIsN85KMYA8OvrocLIhzNBIAlLO8xJWDbikgO2XUEmjYVrF8IS9cYipZy4Hidk9Fkc02/CACYwrJ178UFUPMsxUSM03evQ7yAt060tS18JAXIwDtJNF4GYW1bC2jwUc9J0W7K4pcM4NqxCHouLxnz1PAlLuzwWlrDsu+++m70SlgO2XUEmjYVrF8Jy1113Nbvttlv5c0//+OqEZtttt03fMwb+nGqPPfYoYq6Nh3PPPbf5u7/7u2a77bYrMoB/+n4wgCkPz1122aX52Mc+toxAHnbYYUXXn/GMZ5RXA1YLyTH9aBg861nPWsL2pS99aXPjjTduNs0xlK+++urmH/7hH5oNGzaUf5w2B6XvDwNz+TbbbFN09sQTT9zstS+G9GmnndY873nPK2OEvNL3j4E56B//8R+bSy+9NEn6ZjPA2t+cfvrp+UpYixjWPWFx3BzeO+F2FNzvvvvum/3TfRKWFu3oIaorYbn99tvLgP37v//7Zv/992/22WefxveOunj507djsOOOOxbjjajjFIrMzjrrrGJMvOY1r2n22muv5pBDDknfEwYHHnhg0eODDjqozEEnnXRSMdgYyuG33377gr80o/qDDz64Sb86BvA84IADirGGCP70pz/dbKYjg8svv7zMP7vuumtiOgW9Mp+Yy5FsGA+6GBuHH374yPo/6jjJdE/PKa985SsLCf/iF7+Yp+mDCrjG9/Gl+5tvvjllU8li3ROWhx56qAl/3333Nbwv+zHC7PKES8ISSPQbdiUsf/jDH4rBcPLJJxdDmhGRrn8EnK7EOGgjLNdee20xoj0LYzrDTcSiKxYkeeedd5aTllNPPXWZYJ/73OeW05dRyzfO0o+GAUydJn7oQx8q+P/sZz/bDH/Pg7B85Stf2exZ3vSHABlsvfXW5SR9sNS99967nG6Jly59vxjQ8auuuqqcYH3hC19Io3hQAdf4/r3vfW85gTQ33X333Wvcmvmpft0TljaoLex27MNQk0Zcuv4RgGuXV8IQFvJ5y1vesmSI9d+6LHEYYYH/ddddVwgjOY5qPGe64YTGKS88vfZoh7mNsOy0006FsKSGTg+Bc845Z1XC8uUvf3l6DVjgks0RnNcive1gPNTeSeFWW21V5pw6Pq83x6krHrAPwpI6Pn8Dkc3k9Pemm24q6+/8tXBtWrSQhAXUgz9rbOCn6x8BuHYlLN5bfvOb35wDtn+xLJXIWAjiPnjCIv76669fMhqWMuXFRAgw1mD9pz/9qSxKp5xyyrLykrAsg6T3iLPPPru8EjPslTDGXFejMPMNN64J1BzjtdPaGR9e4fWdIScr6aaDwNe//vV8JWw60E5cav1KWI6BTXAuFGGpSUkSlk1KMM2rSQiL3ed//ud/LgbDNNu4yGUPIywMhp///OeFsCwyRtPqO8JCx732yNXzUxCWcYzeabVzvZY7CmHJV8KmJ326Tf8HCYv4WJ/TWJse/ggL/PM7LNPDuGvJSVjakUvCshGX2lhohypjuyAA164nLElYuiA+Xp4kLOPh1WfqJCx9ojl+WUlYxseszxwrERZ1JGHpE+n2spKwtOMyD7FJWNqlkIRlIy5JWNoVZNLYJCyTIjjd/ElYpovvsNKTsAxDZ/rPkrBMH+NhNSRhGYbO9J8lYZk+xl1rSMLSjlwSlo24JGFpV5BJY5OwTIrgdPMnYZkuvsNKT8IyDJ3pP0vCMn2Mh9WQhGUYOtN/loRl+hh3rSEJSztySVg24pKEpV1BJo3dEgjLIst+NcLiV8LiF30m1YXMvzkCqxGW5z//+WN94Xvz0vNuNQSSsKyG0HSfJ2GZLr6rlZ6EZTWE1u55EpZ27JOwbMRlkY3WdtXoJ3aRCMssdEgd4fuQ0CBhiS+5+o8Kv9L2i1/8YrMvg/dR57TKmAX+fbZ9GGHxh55JWPpEe3lZ80ZY+hzXy3u7PGatx4v62750r6Vb2ndY1hrL5dJdPSYJy+oYrVWKJCztyK97whKLQIQBQ0yIcb8l7CIzJut21n2qJ0xp2nydJvo97VCdBp/f27/llltGrs7/sPT9pXttgUuNQ8TVDQujPeLk8TO0kbbOH2mENebuB8uJNHWeuB5sl/j4meHBfKEH2hE+yhk3XCvCor/hog81rnE9+CziI28d1hiGvOrnrgfzR/kwbZNX5I+yI33ETxL+8Y9/LDoeP2tct21cwtLWfv/38uSTTy7rl3qeeuqp4gfbr5xoR+ARZdcyky8wiTLki7R1nHTaEuV5Ji0ZcZ6Hj3wrhfJJqyxh5Hcf7RZXX69UFlLul/AGf9ZYXn8caf6Z5q+E1W10PYiB+4iPPsR9nVbfyTnwiLRCz2qs4plyIj7kEM/qssVJGz7S9BGqZyXC4meN/eSxNvbtAsOVyo2+Rhh4RNiWL3Bue1bHKUO54dyHHCIuwsG0Ed9XmISlLyT7L8cfRxob/ul+GmOg/xbPpsSFIiwmAM6Ese+++5Yd5IB5S1CKxx57bLNFyUIz2G5x+tnmo6+BQeBRx/d9Det5IyyDmDHeBuNqHDzj64Wmvq7Tug5jsA1f+VaKHyzHfdSrTE7eaI9r5Q1rS1uZddxaEBbtHzSS6jZF/6JvEQ6maSuDYRwY1elXu1ZnbfQF3oP5oi2TYB5lDhKWiBcGYanjVrrWFlhE3yOdPomLvtRt1lc+HMykFacsec03nHzKEBdOmrrcumxplBfes8cff3xJT9UjThhp3Q+WEXUNhsqNdnoW5dRlDeZpu0dYGAWDhEXaK664YuqEpdbfwEpYu4iPOPchH9cwE9ayqdO6jjQRH2HUH2HE1+VGXePIJ8oZFkab/Dneq1/96mVJEZbtttuu9G3Zwx4i9JEPF/2DY/Rf3DBHByOfPCGDiKvzioNllClt1GUc0eH6ubyRpi6nz+skLH2i2W9ZCIvNFJu8tZ72W8uWV1oSlo0yi8lmliL81a9+1Tz66KOlyu9///tDq77zzjsbE0zdTtePPPLIUj73JlFxbV5d991331L6wYVq6UGPFyboeSIsMKoXYV21WFg0YqGJxScWkngmrfxPPPHE0sIzCFU9uainvpeWEfjb3/62+fGPf9w88MADS4uScu+4447GyRKnTu5LX/pSKcM92QqlVS4fbS6JO3zUhCXKVYzXZexweiWsbxdtV9+gj0W77lv00RiRXhpY+Bfg//7v/y7NkwY2ka9us2d0//e//335I0zX4sLB3bMwfJXzjW98o3nooYdKEvfRrmhLnT/KGTccRlie85znNDvvvPO4RS6l/9a3vtUon9P+2tE7302q3b333tuYj+hf9I2e6ze8Hn744YJHYE+H409F63I8V85dd91VRzdf/epXl/D1oE1OkYEczHc33nhj6YMyOe3SJvUiQBx9+OY3v1nqc218CUdxa0lY9Ek7a92KcdHWdn33XJ7I61p8PKvzSQujW2+9tRg95CddOJgFhuJuu+225pe//GWJC9loG1nU9UT+ScNo81oRFnpErzm6esMNNxR8Vuvr3Xff3fzwhz9sHnzwwaX5GE4hxxqXwDHkBmM6bfxx5OiZOdb40ybO8x/96EdlvNHn0P/ysMePJCw9gtlzUUlY2gFdKMJiMorJY++9917zE5YzzzyzLL5IxBve8IbNFpRBcb3pTW9q3vjGNzb+eflzn/tc8Z///OfLQiOtydfk9qlPfar8O7x/iB/0/oTxtNNOWzJg6gVssL6+7tUxL4Ql+oTM/frXv26uvvrqskgzfumFxdmi8p3vfKf8YSLDi+EknteX22+/vRi3dImrMWTgMqAjPYPorW99a0N24Y8//vjm3e9+dyEEjEZGg7rvv//+8gde3/ve9wqp1D7PjzjiiOayyy5bMibJOJy6w0fcuOFqhIVx2KfTXsbuRz/60ebjH/9487GPfaz5t3/7tyUv/pxzzik73IwA2EQf/cHZZz/72RL3u9/9rlxfe+21S82TnlyQrXe+853Nqaee2px44onNscce25x00knN+973vlLfz372szJelM04kP4HP/hBIYwwZ0Bo03nnnVf0g9FHtnVbtGlStxphed7znjdyFfDw+pI5wRxAb972trct4Yr4BrkTfuADHyh6qr9vf/vby9xyyCGHFKzkk964uOiii5oDDzywxPuDS4aUvjO8zF9B6qKhDOP/+I//KOOHPIJ4vOUtbykyJXtjiN7zF154YZHVO97xjoY3R5GXNhk/xmIY1kLjg7wYjORijP77v/9784lPfKL5yU9+UuRVb+JEu9rCtSQs2gNHhiojOOYXOuZa/0JeMPMHrsYiQukZIzZ00LOPfOQjZW6n77z5hv6ffvrpzQUXXFCIX6RXtxMMeNIbxjo5wAO+cL3nnntKO7Sn1vs2HLvEaYty14qwXHrppc3FF19cMDTe3//+9xc8tCnsBG3k4QN7/qqrrirzt7mBvl1zzTVl4yR0zvfSzGvmGuMl5CE05j796U8XHTU2OGPMK6E2TIwVrwAhk9qDUNBvZUb6LlivlCcJy0rIrH08mylfCVsuh3VPWBh44U3QJnr+da973ZoQFhOiRd1EZVE2WVqAHIublLQxFhahdGeccUbz0pe+tDn33HPLJHv++ec3//Iv/9IcdthhZfJTpnT6aeFiiDPEoh7l8p4ffPDBRQtiN2e5SvQbow9rSVhgE3jqGXJ41FFHFQMNhoceemgxZhkHMPLsuOOOK7Jh9PquE0OKkRWLC2MgFqjY/SI3htQxxxxTdjTha6GzAP3nf/5nMSAscAyBK6+8svnNb36ztHNpgbQwITeME7v7rvfYY49ieNITnlE2uHM9qbTWgrAw0v7rv/5ryZ911lmlf4xTpyjf/e53C3Zkx8ONEcD42meffYoxgIwbw2TDeCDX0PMw9hgljO8ghl7zqQ1suDNCPvjBDxYCSy5kzpjbc889iyGB6CBQcfI1Kd51/j4IC71DtnhYIBhOVxg99I4ufe1rXyuGlfkg8GTM6jv9pYswZ7Aybu200zPpP/OZzxRCYJ4iJzrOwEK8X/ziFxeCQTflUzbCb1yZg+RlqJGVPEiLet0rj2GO+DjhMv6MK3ObsYVUeuZaG8nK2EEktTXkhmTttddepR3qYigqexS3loTFnAQvBq8+IQ6cePM0nYcrbN71rneVeYUuk7G1Ao70nM7DBe5OHOUhIxtY8sLKWgA/HpY2BfRdPhsAZOkVaZtmNsXU8+1vf3upPdoZXvtqPwrObWmi/7MmLPoBG/MrYm+Otq4effTRRe/h6DUc80TgZd6BK1074YQTCvZk8prXvKbIxXNjyJwf44ks4OyZuUOdl1xySZEJvZdWW8SZfzw3bsmVLKxL2mjM2IgwDmDG9YG/cpKwtGnmfMSxmYwNekSn0j2NwLonLLWgY5I0Ea3FCQsDwARlF0tbTIIWZrvrDEftYuAyzmIBczRoQrMImTDtptn9NJENLswWL5OcCS92lRkBFiHeZGti5gyCWZAW/VxLwlLLH876b6ees3AgIU6skEIL+JFHHllwhSVnsWewWtjJz/O/+7u/KwaWvDBUDiMPgWTgIh3ilcFYdqJi15IR6EQBqQzDGT4WI8a1nWK7fr7wa9FkSHCMTnkscBw9iesSMcHHrAmLpuozzHgYOUFiPLjXL3H6GA4eZOA1OkSHEWCMGDsMXIa0HUr5eHJh0H74wx9unMCQu/zGEmMwylafsWTXE+7GJgJwwAEHlB1peemGMvvCO/oknJSwaJO+Mbj04ZOf/GTZsdcPxPuggw4qOolMcPqB3NFlxIwuK8M1QmFOlMcprLmFXsLeqS6s7RCbl5ygIAZICZzNWfpC752Q7LrrrqV+6ckMeWI8I+Xuycy4CIfA0nV6bgwiWtoU85s20hljwnyGnDHi7Dyb75TFKESE5De3hYyjjrZwLQmLPvHwoJtxmqKddNAaQYbi4RivDIfxYi6POUlf6TUDGUk099hgIVNpagef17/+9YXgm/PoOKLuZM6zf/3Xfy3Gd50n2hohWYSv041zLb/yZklY1AkbJMV6aC2AI8L78pe/vOiWeLoIb+MF3uYTYwG2TqLM3XTdnExHpSMD8wlnnbBxYK5HgKQ3ZzmR1IZwZMYGMD6UhbBYJ6ztZOE1SmMh8mg75772Ud64YRKWcRGbXXo2w4YNG4quhl7Nrvb5rWmhCEstBkaJn20NN8oCF2m7hiZoO14mPvXZLasJi0nIvYnOZEZRGQMmMbuNDLBXvOIVZfeFUeK1IQaEBZ9TpqNkO6oWOsaE8nypNHy9MGrPtJ0+zQth8e6xXViLCGchgoHdeTuaDCCkI8iiNJ5ZzMMQYAQwjCzssUhZSBh1XsNBLhnPnN0RJwIWQMbHa1/72mLsqV/dPGfxczJjUeO1kyFmcVQGQ87Ciqz2LbNZExb6EEZX6fzGLzgjLCs5ODCuGAEWWUYFnaLnDDKYM9DCwPBqxeGHH15kDXenJcqPsUJucGQAOw1QFnxhbXeZ8WDcKd8YZTzK07eblLBoj3mC0YsoIxIIDKy8uuUZvaZTjGDzCbLAM4IRvXi9lLHLUEJEkB/xymI0wQ7OXoeBMcPKaZ85SR+kC2en2PylfnJgDP/TP/1TuYYjWTEYpQtdZkA71USUnB4w4sxtDL8YI9qPpJKPXWg6oW2MffMcA9PYREBHldVaEhbjQN1dX9sAACAASURBVP/Jjhz0Ifqrr+YA5MzcQH76F3jBRB4bL+LMPzY76DDCaM7Zbbfdloii9IGJPORM/l5Zsj7EyZz5xRrj9MC8Jw+vrSv5kPu4YfR/VoQl6qN39BmJd80h0jDgpOOC9AqlNR7M+XTsC1/4QiEf9FRZNgzMFxy86L7NAPO+NxoQeOu1OSrqlNbpmrmHLKwdXg20thhr2qROz81TIftoVy2PUnGHjyQsHUCbURZyzxOW5WAnYdmISUzoyyHqN8ZCzCCw0FugLRIIB8PRJGS3mUHhmkHAWLZgMdLs0JjM7AZj4BYnJy9edXESYDIz+VnsvF7jmdcNGGBChoQdU05/YxLst4ebl6YfBt9a/axxPbHDlWEGb/G1zGPhRxzs3trJt5MLfwagXVzGGsJj18t7/WTIWLDQMH4s9oyqICwMRGkYvhY7crPTTB7kbNdOmV7tsPPNeGZQMOhgRr4MMnIkd8/qNm+OdLe7WROWaGXoHznQXwZX9E0cFyH8yIDuWmQZAu7tTCKSxodXMug/POFOBvIZD+TFeKb/cCQzdTnxcrLFSGCUIPPkyyP+sCcrxrHxRUe0KXz0pWtIN7ynzAgadL50v9p3WAIfekQ3tNWGiLbrr34iafoDY5jQO8QPcbDzy9Ci43QeNowk93beYSk+Tm/gqU54IA3whJF5TBs4mDodMRYCTwYcvO0aKw8BV07MPwx0aYwdp0TykTVDUD+0Q1p9YyAaS9JoFyOd8W5u1G4YGGOjuLUmLDBhtMLPvEQX6TfjFhZIHCPXySA9N6+bk8gaQSXb0EmGMNJj48R4MIcgO7CRB4bqM4+ZB71Oae2xkaUeRBAe6jFmjCeE15gKfW8LR8G5LU3If1aERRvUiaDRG5sTdNVaQK+MQfM4fRNv7Oi7MeJVObpIb40j8wmPwBsT5EYfw8lnU8qcYgPAWkI+xqV84eQhb+MTIYU5oqMt5nybAmRibGg7+cVYIPeQfZQ3bpiEZVzEZpc+CUs71uuesNSTrAEezncTZn3Com4TpIXV4sNQsoAwXOyIxZG8yZTzmpFdxDhNsRtnx9gxNOJjorX4ICeMNAu/xY2xYZHyHrIJ0i5neGUwvmbl4L+WhCX6qR0MLYsVgmBRsSiFg514JywMCIsLLJEG1xYxeRBHRgbDiZGkDIYzw0BoobHwcORiF86rNtIyNJAWxrlFSTmchchOOMJC1gwNO2xkp05GIcOlNsRCr0sBE3ysFWGpm2zBZ6DpU+1ivNJjRhRs4MdYIxtGLaMZ9nEqVp8qeIUS7saQnXc7owxccoIrIxvuDGCGvDFlfDJ6jRHGifFJL8iZnMJQCGMh5DDY9rofK133QVgYMHCxW87odcrCM6SMeUYWjJAUJyHqpHd0zY6+vpkL5YUjXXP6zLDTXyQGfnDyzG493VemcqTzLj+DzBiBMQOP0Uxu8mifdmgTIw7W2qLtCBPZK8M8QU7az0BUhvmNnLTF/Gh8ITXk4kQUASIrOhRzm7kwdGcl7MWvJWHRPn2CoRMPmMIF4bB5QW/JVB+RCfMOLMXHCSNdpcdCMoK7sSE/DGFDpsg94zhIC/ycKDCSjRttcG29YYSLo+9wVP4kOr4S/sqEwSwJi/oQEHpqfYQRfXWi5PQbWTNHWyfMt/rOecVanhqHuFZmePI0nmCIhFirrTfkYd6i53BHFDnlGyPWF6TGum/tIDdzvXnK6Ypxqj4ucIs6hdGWSFMSjvCRhGUEkNYoibkwv3S/HPyFJCwGtkloLQiLSc2EZBG3S4l82NV51ateVa4tMDFRMqK9fmES5RlWjF+LmoXdZCg+djdNbHbLLNwWMLuoFn27pgwFC5W6GcSzcrCeB8JiYrcwe9WKseTegszBw4Li1Ts7XMiCdjPOPGMckxe5BGGxoDCy5LHgWFyUz7AWR84MRuSUt1ghQuRApsiMBZIRYZFjlPDkwxhTn8XUcwuf3b9YkIThJ5XjPBMWfYQj4wFm8IQbGTDcGMCMPLvE8VqSMcO4ZvDS+yCHxgujHbYMVQaZcoOYwt1Y9Fz5jGN5GeR0hey1xXX4kEGE48piUsKiTQywIG76qO/ar1/6a5fWqSGDlC5xjCBGrLx0z5wiLd00DpB2cwgszTEMO1ghKTByemJTxPjg4gdDjAm6biNGfU50lEcO5jqGIQLCoIsNAKfI4sxNDDtjAJnSJ21gyIdspfPdPHXQBwa2HWxjQz/pAkxCb0rjhnysNWHRVnMGEgZfjo7BlQGLsOib5zanyE/fEDTfv4CBezI0/9BXxrY1BHHxCp4xY5zYIDPfCREbcw+8GMjWE7JnPMNb+aHTg+EQOMd6pFzjaFaERX3whiGPKCMtdIyOOzH3nSxxxjwSqH2cV0pthJANX2MSc0GE0tF9Omrc0DHjT9nWanKEt/TWGePCXEa3EUV1x2uTNguMj2hHABx1RVi3J9KMEiZhGQWltUnD5kjCshz7JCwbMTERzcpZJCzmFme7uowji75dSl8ejYlIe9ybXE1k3su3IIlDcuzAe9XLNadcr8sgMBZAEx/iwpCIEx3XYWjMor8m03kgLNrBSIU5YxYGFnDY2VFnhNnNhLFFwuLGMdoYcwiHhS4Ii2fwZRiIs8DBGGEhL/pk4WdQWaQYV4wBr21YyMhOnDbwFko7b0KvczA6GHbqdCpgMfOaATKkL325eSYs+siggIWdSeSboc3AZrCJI88g5fSe3Iwj8nJCwjh3emBsxA6qa7rA0CMPY9D4ssNpp57xS3YMGfGM9HiPPMamsDYUushkUsICH/Uyauk0w5QuMTzt2sPOq6MMImlC1/QzCItNDjqAJEjHI+IMZmUr1xxjDPMwNVYQebpJz222xKaJ8QR7hrj8cCIPhMRcBHdGnbaEAcnQ5rWRUacOxjajj1FHFlzMgwiq8hnp2mbsMeqd4hjDXqEJbLSBb3NrSVi0Sf8RP+2gk+Fgai4w7vWH/upvvUbRTQZtlOO5dDBkMBszrs1tsERO5TeHqJPeS2cOgr008IQ5+TCgOfKahtNuujFtwqKe2tM7eisunE0K40RczPuewUval73sZSWp68gbZQ7OBxLCGKZkSC7WAJhaL6zfZCo/+ajb/GK80QH6j+TTe2UYZ4ip/Ooij7pO19EW4TguCcs4aM02LcKSfxy5HPMkLBsxqReD5TD1E2MyRE6QCZOW143sGDOQX/nKVxZiYfHlGcqcdjFifSnPLlg9odo9s6uqTM5kx8tr8WYgM8aUb9Jj6FnkOAb7uBNcyTjmhzrmgbBEs2HPyLHLyCDw2hBjx46vxYwhzDjlYG2BsDvmvXxkDyFkEIlncFrMyAWeCAvjQ7wyEBnyYMS5Jw+hhUmdjEH4WASVwfBGeCxUdlfVxyFFSAyDlFw5+WpfIjt8zJqwBJ4Wbh4ZRDxgZYcdDowlum2xZqwyAOgwQ5s+k59dStd8vK9PXowAu5ZOTMgUwfMqjXSekQGDmhHNiGMcky1DXVucsHl9BpkhB8aduhhzxmJtLNT4ux7X9UFY1Kn/jNX4aWe4Oc3zy0de72LgwybmOPrHiAoDyC+DBQmgw8aAfnMwoMPqYICpJ4iRMmHslbLov7mIkSy/5+GUgwxqQ5AVZClIkg0cYwjW9MCYcW08uObUL715EwFykqMt5jsydU1HyHsUQ24tCYv+wALu2hvfgQjMxJtr4GKucHJWO6TUSZjxwcA1hmBuLkE+yB+eynEyZs7yzFhSn1NbWDrFRUCNBQQGETJOvIHAhVzruvu4Vi4ZTZuw1G1VH12BsfFNDxFtY9ucIc78JI6Hl/XZ+hX6FJho/6CXhv45STSvGI8IiXndKaFnNgboN2edN9+Z68lEvNMY84L5zpgxfzFelcWRqXrCD7ahJBrxIwnLiECtQbIkLO2gJ2HZiEss5u0w9RPLADV5xa6831r3igPv10QYba6lsfggKhYWu6EMLpNULOQWKEa3Bckkq/0WcJOuHRuGF2PcDjQjA7FhCJocLfxhOPTTs5VLMaHOE2HRUgsVLC3eYRSL19Z4/cTzcIxbGFvoLOzyW8yEjK6aXFpQeEaGxU45duktiHbxGAPi4E+uFidxTl2QGYaL3VEGRhgvDCtfkiU7ehCuXqwibtxw1oTFTqGTI4SCt+seRJuO8uK9rgKPQceQYGR5ZQiO4aWDh7IYC5xdZMat0waGNad+pJ1hTtZevZPOBgIDUbw05KxtTj4Z8GQYdUVY4+96XDcpYdEOeokIMHbohnnBHKLtdAmO5hZ9C6PXSYUFke7SYc8ZvuYO5XgFxs4wx2iy606nbXrQRfrK2FIG/QkDzGaA11bNQzBlNCvLLxsiT8i9ewSHcWwjAEmEA4OMAR2vz6ibDBB0hhUn1AfjEfFEWhAkY8lpku8B2thRpjj4DJPRWhIWbdNGnr6Fi3hxMbcIw4CW3nwTz+kto9dY8Qwu/keI3MjMHEIW8VofzGFqLRJPt82BcKI/9IR8vDorLua2aF9fobL1dVaERX2wQAR8f9C49nPGPL2ko0gafTbXerUaHuZs6ykXREZZbZ5MjAW6TXfNUU7s6bVxCksEFBF3gmL9MabIwlsT2iIOLuYr5MZ3a3wfRprog+fhB9sxjnySsIyD1mzTJmFpxzsJy0ZcTPazcCaY1ZzJzWJjArQ4cyYozr1Jz86LhYzhLG2kifLFc/EsXqtQZqQtF1P+0J55Iyy6HIQjcCV/cbAPDKWrr2uogkyIG9QdecRFXoYggzdOwqIc9VkEB8uwsEWZ8Tx0QR4+yldH1BPljhPOmrBE2+p2x3UswpFmMJROvy3uQfwirzAc2UgHb+ScUTfogrRKx3P1WAv5xviJ/HV9g9eRZtRwUsKijfQ1dILemBPgqH/h9A8GXiuU1nO7vfqmDMZTOPOEdinLM+XJx9Fj8TFm4ItowEF9yiObWs+l10bPtUOZg+2Lfth8kT9cLdPAOtqlPPnCuea1QT3qjHZGmsFwrQiLvpDDoNPe0EVpAqc6LvLpq3g+5nTlecWLge15yEQ5ynPPCeHD0fkoX9nwq8sriabwEf2bFWGBAR/OdWAZcRHCJsaGNIFLnV/7B73ngbGy6DJZ1OMhZFaXpT5l0W0u5CGOLEJWnmmXvIN1x30pYMSPJCwjArUGydhM+R2W5cAvFGExqMOtxf+wqFsbTDr84ITpmYUmQteDLvoQYUySQumFMeFFfVFG5JGuThPPpxGqcx4Jix2wcLDQzpBHXAdesfCTWSxIgbcyYlGJcsR5XjvPYuFTTu3qfBFvkeLl8bx24kJPtDHaWacZ9XrWhEVbYRPtrtvuOmQgTVzrS+Sr+zVYRmBeL/CBY+SDW2AnfV1PXMf4EJK3eNfCus76OsofJ5yUsET99EP7wolvc+L1gXMdeSIu8sR9jX88E8Y4iHT1s9DVaAP81CM+ngnJpR4H4mJsRXmeR1pxrpWlbN7zaEMYe5FXGG2o4+rr1QiLd8id9s3S6U/0KeoNHXQffdY3fY77Om1cC+Ulx8DRdY2L+HB1fMRNK1SXfs6KsER90R/9jv7CMMaC56FnrqWB2SBu4tu8PHRb3+oyxZNF6HiMCfGc8rnYhIz7ElmRGG1Tdlvd4sZxSVjGQWu2aZOwtOO97glLe7eb8m73WvxK2ErtWa/xJtF5JCyDeGtnvRAMPl+v92tBWPrEMhZuZZLfMDfugj5YVtQV4eDzce8nJSzqm7RP47Z5PaX32iZS4vRz0Pk+jPXBq3Xp+keA3hqvsyIsehDjdtywa+/HradOv1Kdo6RZKe9gfBKWQUTm557NZGw4CR8kvvPTytm3ZGEJi/d0k7BMX+FMsFsCYZk+EvNZw6wJS98oxALed7lt5UVdEbalGSduUsLSVzvGafN6SpuEZe2kSXeTsLSf0sBmFi4JyyxQ7lZHEpZ23NY9YYnjXKHj2Dju9cW6JCztStFnrMk3CUufiPZb1pZOWPpFY7alJWGZLd6DtSVhGURkdvdJWFYmK0lYZqeH81pTEpZ2ySwkYUFakrC0K0TfsUlY+ka03/KSsPSL5zilTUpYxqkr0y5HwHdYVnolzC/NeZavhC3HrY+YcQiLtH34ru2epO4udc6qvjxh6SKd2eRJwtKO87onLPXgr7+jsFb/dN8uhvUbC/88YZlf+SZhWTvZJGFZO+zVvNqX7v1Kz6y/dL+2iMyuduvCqK+E1Wv4JNdde9e1zq71yTeLOpOwTCKh6eZlM+WvhC3HeOEIS0wGSViWK8M0Yky8SVimgWw/ZSZh6QfHLqUkYemCWn95krD0h+W4JVkXkrCsjFoSlpWxWYQn+T8s7VJOwrIRF6+JpesfgSQs/WPaZ4lJWPpEc7yyhhGWHXfcsXn+858/XoGZeiwEgrD4M8raQGRI+9M/v9KTJyxjQTpy4mGExTN/frnddtsVUlPLZpLrkRs3kLBrnQPFjHU7izrzhGUskcw0cRKWdriTsGzEJQlLu4JMGmvi7XLC4l+zN2zYUP4hftI2ZP6VEdhjjz3Kj0+QkzHAWON8IZnB4N+w4z8uYhFdubR8MioCfqrSv1lvvfXWzcknn1yyBfZuEJadd965yEP8NH3Iddywa5vGradO37XOOh89h/9ZZ51VdNwfVtZ1uA7C4l/JB5/l/eTfKaHjZOCHb/bcc8/Nhg18DzrooGabbbZZRlg2S5g3EyFw2WWXFYy/+MUvTlROZu4fgSQs7ZgmYdmISxKWdgWZNNbi04Ww+JfgbbfdtjnttNOWmpCGwuSGwiCGTlgYDeIHCcuzn/3s8jvwBOB5GH11GUvCyYuREQgcnbAgLCeeeGLB3i8ZegbfHXbYoXnuc587E2N55Ia3JKx1YdTrlmJGjhq1jmHpAv8PfvCD5RSlPmGJZ4w5JywIS7rpIfD//t//a171qlctq+DAAw8sYyDGQ8hzWcKM6IzAlVdeWb4nkYSlM4RTy5iEpR3aJCwbcUnC0q4gk8ZaaLoQFicsdtj8X84ll1xSdjwvvfTSJn2/GLzwhS9ckbAgjB//+McL5hdddFGRA1nUMmDYpR8PA79AZQf/c5/7XDEY3vSmNxWiUs9BTlie85znzARbbeniJ5F7l/rkmaTOyEt/L7744uaII45ottpqq+ZHP/pR2e234x+enpt/bJiQV/p+MfjGN75RZADjXXfddbNlBknxSpgT9gsvvLAx99Se7Lp4Mu3iu9QlT5e6Is8s6nz3u99dNgURFut0uvlBIAlLuyySsGzEpTYW2qHK2C4IdCUsdp932WWX8tOifl40/XQw8NrXC17wgiJaO/wMNjL75Cc/WXY4nb7w22+/fVnckJj0k2HAEPMLMDxs3//+9y8jLF7Vky7wHxamPMaXh/kEvjvttFNz3XXXLTvJ+ta3vtU873nPKzJKfMfHdzXMnN46XSSDAw44YDP8n3zyyeakk04q2CM00qQfDQOngqN4cw8ZOcVF4NPNFwJJWNrlkYRlIy5JWNoVZNLYroTFosVosON0wQUXpJ8SBnYu4WxXk4txcNttt5XdTTuc4c8777wm/Pnnn58y6SgTGNJrGNpJvfHGG5fwj53OH/7wh825555b/gfEf4EM8yEToTLH9XX+ca7HradOP049ddq6jEmu4fmlL32pnCw98MADmxnMSPu9995bTnN86T7nn/7nXzL1uh0ZXHvttZstM/7g2feKYt6pT1cirkvYVY5d6pKna33yda2zxmq1a/U4tfT6dbr5QiAJS7s8krBsxCUMtXaYMrYrAl0Ji/rCiHatHPfp+8UAtk888UTBt8YczoNjwn3gL226bgg4yeIYxnEdJdV6Lg7mq/mQiVD+cX2df5zrceup049TT522LqPrdWAdMlB+Xdag3ntWtyGvJ5+DQgZxohv3QnhPw9UyHue6a1vGqWMwbdc6u+QL/e+SN/NMBwGEJf+HZTm2SVg2YjK4SC2HKmO6IGAi7vIdFvksZummj8AjjzxSKoE5ZwEzHhCZeE3MfRhqrtN3xyAIop1kJ4kwhm1gTw6e8emmgwC8zS/0GN61n06NWWqNQMwlxsKsXC3jca67tm+cOgbTdq0z860PBNhMSViWy3LdE5aYGIW10bXPPvuU98MDkli44j7DfhAwEXchLP3UnqUkAolAIpAIJAKJQCKw5SDAZvJdpJtuuik3biuxrXvCYvcyvB1Lu2r86173uiQslSJM6zIJy7SQzXITgUQgEUgEEoFEYL0hkISlXaLrnrA8+uijTXivvsS1/5/wSzHh8oQlkOg3TMLSL55ZWiKQCCQCiUAikAisXwSSsLTLdt0TlvZuN+V33v2sH4OaQ1jS9Y8AfOP33m+++eaJKlBW+sQgdSB1IHUgdSB1IHVgvepAEpZ2U3HdE5ZaoX2PhRO37777lv+WEBdp2iEaPzbKy/DpX9d55zvfWd7H9POtXTGpv4uU15P/Sk9imBimDqQOpA6kDqQOzJ8O2OTNL90vt70XmrD4N+n4Jao8YVmuHH3EmAzjhMUXyBCWLk6+nFjnb2JNmaRMUgdSB1IHUgdSB/rTAScsSViWW4oLTVj8CsORRx7ZnHDCCc3RRx/dHHfccb34Y489tkn/NAbHHHNM87KXvazxz8YHH3xw474rNvKmTwxSB1IHUgdSB1IHUgfWqw6wmXzH+pZbbln6yfvl5vvixSw0YfEdlq222qoR8hs2bCisFrPlKQz/rGc9K/0EGGy//faN0yw4BtbjhimD1MHUgdSB1IHUgdSB1IH1rgPsoyQsywnZQhMWpOTxxx9vHnvssRI+/PDDDf/QQw8V/+CDDzb8Aw88kL4jBvDzHZYddtihue666xq/1NbVh3wyfFpPE4fEIXUgdSB1IHUgdWB96cA73vGOJCzL+Uqz0ITFK2H+adq7l+mmh4D3Me2I3HrrrdOrJEtOBBKBRCARSAQSgURgC0fgjDPOSMLSIsOFJyz+TNIXuvN/WFq0o6eod73rXeUVuxtuuGGiL86TUfrEIHUgdSB1IHUgdSB1YL3qgE3efCVsuQG60ITFK2Fc2wlL/PzucsgyZhwE4OhXwgy+Sf+HZZx6M20ikAgkAolAIpAIJAJbGgLvfe97k7C0CC0JSxKWFrXoLyoIi1fCkrD0h2uWlAgkAolAIpAIJALrD4EkLO0yTcKShKVdM3qKTcLSE5BZTCKQCCQCiUAikAisewTylbB2Ea97wlK/41hDsPfee5fvVYhreyWsTpvX3RFIwtIdu8yZCCQCiUAikAgkAouFwOmnn54/VNQi8nVPWO65554m/J133tncdddd5aeK99xzz8avhHFJWFo0o6eoJCw9AZnFJAKJQCKQCCQCicC6R8D3fn3H+pprrmnuu+++dd/fUTu47glLDQTjmRPuu+++ecJSgzOl6yQsUwI2i00EEoFEIBFIBBKBdYdA/LLqL3/5y/LLqOuugx07tO4JC4M5vNfD/vKXvzR+yvjVr351nrB0VJpxsk1CWMjqqaeeKp7M0vePgf8hgvGgc+qYePePdxum5qVBRyZkk75/DGoZwNkcNej60P+U3cqyIwP4CM3z6RKBRGATAl4J88uq/goi3SYE1j1h2dTVp09W4n6//fbLE5YAY4phV8LiNb7ddtutvMe53XbbNc9+9rPLtV8bS98fBltvvXWz1157LWlAEPpzzz23ef7zn99su+22zY477lhCr1CGd1xtQk0/PgYw3WmnnYpOP+95z2s+8YlPLOEfFwceeGDzN3/zN0t4B+4ZbtLBrljQWXOK8OUvf3lz0003BexL4Y9//OPmhS98YcGfrnfxXdu3CPngv9VWW5V55cQTT1zCPS8SgUSgKX8FsWHDhvLLqm0bKouKURKW/A7LVHW/K2G54447CjF5wQte0Bx++OHNYYcdln4KGCAlCKCd5nqn/4Mf/GAx1vbZZ5/myCOPLDJ4wxve0NT+0EMPbdKPjwFdhulBBx1UjOa3v/3tS2MwZEAuSE3qff/j3nwC/5e85CVFx3/6058u4e/C6coVV1zRbL/99s0ee+xRdF+ecXzKbbjcDjnkkILn//2//7dgvJkA8iYRWHAEfIclCctyJUjCkoRluVb0GDMpYTnttNNKa5TDkEjfLwa77757ISzwfeKJJ8rrGa7PPvvssgv985//vEdtyKJqBIKUn3LKKeW1JLrthMurMjvvvHOzyy671MnzumcEzjnnnHLKNajjSONll11W9P+CCy7oudYsDgLmGN7JlZP0dIlAIrAJgSQsm7Cor5KwJGGp9aH3a4uSwTfuH0cy5rwGFoQliUq/RCXw9Gt5Xs8IYzl2+M8666wis5/97GflGcUII0OYbjIE4P2HP/yhGGwnn3xywRiuIZfnPve5hbRMVkvmHoYAwkL36figu/zyy8uzr371q4OP8r4HBMwzdB1hMQelSwQSgU0IJGHZhEV9lYQlCUutD71fT0JYkByEJYy43huXBRZjgdHAxRdgyezMM88sryt5XQb+6fpH4I9//GMhhaeeemopvCaCXgdzwiJuNd9/yxajxA9/+MMF/8FXwvT+kksuKfr/5S9/eVX8V5LPYqDYrZdeQXWa6PtcecLSDcPMtX4RSMLSLtskLElY2jWjp1iLedcTliQsPQlhSDF2NwcJC4KShGUIaD09SsLSE5Adi1mNsBgXX/nKVzYrfSVy0ha/Wca82QyBJCybwZE3icBmCCRh2QyOpZskLElYlpRhGhdJWKaBan9lJmHpD8txS0rCMi5i/aZPwtIvnuOUloRlHLQy7aIhkISlXeJJWJKwtGtGT7FJWHoCckrFJGGZErAjFJuEZQSQpphkGGG59NJLyy+IDZ6wTLE5C1V0EpaFEnd2dkwEkrC0A5aEJQlLu2b0FJuEpScgp1RMEpYpATtCsUlYRgBpiklmTVjMhemeRiAJS2pCIrAyAklY2rFJwpKEpV0zeopd74RF/8IPQrZS/GC6uB83feSbJBwkLPErYf6HxR/rrdcv3bdhLY6LZ3E/DN86j7m50AAAIABJREFU7Sjp67K6Epa6jFlf1/2ddd191zcKYenzV8Jq/aivo1+Bbdz3EbaV2VZ3H3WNU0YSlnHQyrSLhkASlnaJr3vCYmIMH7+C5P61r31tOfIHy7R/BalL+bHQdAnVx/BsW5hWim9Xj8ljtcHg6/Kzxn1+6X4lHKOHKz0fJR7e0g26Or4uZzCde2n9ak7kWS19Wxld4l796lcvfeneuBgkLPXPGncpP/oWeaNfcd8WRhvanrXFRZltofTiww3iG/FC9dbP45n8nsVzacKvVGfkHRbOirDU/Y/21O2OuGFhnb7ue+Spnw9eR5oII3/cdwmjji55I8+sCIu26nOtP3Ed/ahD7ZN+XFeXMXgdZYk3zjl1uF/NDZZV36+Wd6Xn5joY+FnpV73qVSsly/hEYCERSMLSLvZ1T1j8GV74xx9/vPwpmz9mY6g94xnPKKh0WRza4WyPVX4Yo+0phsfWC0Rcx2IT98PCunR9H3TycoNlDqbrcq/sLoTFf1T0SVi6tH2lPINYw41vc9JamGsDpS0dIwKhjrR1GOUPyifk1lbeqHHGgZMUbpCwwB9hmbSe6Ls6Aru29kU9cOBWwrQtb1tc1KX+cIFrPIt4YcRFWD+DTYxh7Yo+tclE/lHcOIRllPLqNDV20d7B5+Lb2l/HRRphYBdxgVNbf+NZnVb94sk3jOZaNnX7Rr2OetrasFoZsyAs+k9vQn/CUBdftz2uxYerryNu1DDKa8Ml5BgyqMuM9k4ql7rMtusYS0FYhrW3LX/GJQLrGYEkLO3SXfeEpb3bTXPAAQcs7SxPsjCsVH7Em/jrRSrixwljMtfO2kf8YBhpxK/mpNVG4WA5q+Ud5bky1ythCZwjrGVdYxMYxyIdz2ATuiFv7UMeddoop04XMot044YrEZb6jyPVsVZO3fo7iMc47ZGXccYHduICz8BQGPERrvQsyom2DaYfpX3TJix1f6NvdRjX2h79dB066bp2dfrob+St07mu0yoPSQmi4lkYy5Eu8kf90YY2fCNt1KMMflw3C8ISbdIffRZG3wK7Gsv6OvoXZYwTBiZR3mBez23gDTp4xwafvFyU1RYO5h/1HgbKT8IyKmKZbpEQSMLSLu11T1jqSTYmYFDsu+++MyEs6rJQWxyuvPLKdim0xDoJeeSRR5qHH364+Fh4hMp76KGHWv2jjz5aFpzf//73JX9L0cVou/fee5tbbrmlufvuu5vf/e53jXw1Vq77cMqZNWGp225hhGONJUzd6zOcQy9cB96rhbUhpb5Y6MnlgQceKGWrOxwj4M477ywyizj5+G984xul3trAVJ42PPjggyVPtCf6Qp/ogXR1f6PsUcOasIQRIW+fhCXaB+crrriitWmRBgZ/+tOfClaB8W233dbcdNNNS2SirQCyjDEBo1qu6oUfuUQfxSn/t7/9bXPzzTeX9IG/tnhOZvfcc08pF95RR8hEWdFG6Xl5oy9t7azjpklY1POb3/ymVBe6oj833nhjGfd0h4v2RvjYY4818NZHc8hdd9215OGnv219Fhf4C5UPDxi5Vm7obshA/T/84Q8LxtJyQu0NH8azUJw2kCVZkFe0e1TMSyUbP2ZBWGABR22GA73UD1h4Bmd90+/wmgdP4wA+ozoYhwzUF+UJ1Qc7dSs78BL3k5/8ZKmKiNfW+++/v6wPIbfBkAwi/VIBI16EDiRhGRGwTLZQCCRhaRf3uicsdbfryXW//fabGmFRDyPo8ssvL3889h//8R/N5z//+WaPPfZofIkzfBiqv/rVrxr/dv22t72tefOb39z8+7//e/Ov//qvzWGHHdYcffTRzQknnNC87nWvK+VZbOQ78MADm4MPPrg55ZRTmt13372kQUAQkQ984AOFJDCIOHksihYJbbOAff/732++8IUvNL/4xS+a97///UsGoufha+y6Xitr1oRF/7j77ruvefvb39684Q1vaI466qiC5bHHHtvwxxxzTPEnnnhic/7555cF/bOf/exS/JFHHllO4chM3kgv77e//e2S/kc/+lFz8sknF4NLfVdddVVz/PHHF1mok0Fk4ecYE5/73OeaT3/608WoKJEbP5TNqAlHXuSo7He+853NP//zPxeZXnvttSXuXe96V+mD+hgg5NrVTZOw3HHHHc3Xv/71Mga++MUvFr1/5Stf2XzpS19a8v/5n/9ZjDnGJ6c/vuiPMCELZGksXHPNNaWf0Ve4XnTRReUfyRlOMIPVG9/4xuakk04q4+hb3/pW0XvlagtZ1z8ioGzt82/mjDF1Gyd0lhF3xBFHNKeffnrRIa/GfexjHyt10KnjjjuuGP6BexhgMXYijOdt4TQJi/o//vGPN+95z3sK4dAf+qOv4r7zne805p2f//znBeMf//jHBZ/999+/6PB//dd/lfnH/GJeeutb39q85S1vKbgwuhE9z4QcWZmn3vSmN5Wx8t73vrdgHv1WvrkNGQpi6Jly6T5ZkCHHUP7oRz9aypLH3MgZB9IbF57bbBkF55K55WPahEXbrAPnnntu6eOvf/3rZu+99y46SofoKpxgKC3dvOCCC8ocYYy8733vK3NXPV7gGM7YMU7MLRx5k4FyzVP1TzIjRv/yL/9SyjdeYhzdeuutzYc+9KHN5iRj4fbbb2/22Wefov/wv+SSS5qvfe1rRQeMCfPbDTfcUOQW7RknjPGShGUc1DLtoiCQhKVd0klYenhXvobWwsPZ3bSbbFEx2SMHiAUDKTzD10JigUAcLMiMLIYw0sJIuu6668rOGBKiLI5Rxfi1IDGy/NKT3TgL4l577dUwaO3mc9pjkbNT94Mf/KD53ve+11x//fXNpz71qWJ8KZNBeNlll028Y1kqHPhQ/6wJSxg+doeRMbvz4mBiR5HnGGz+bwHWnmtr7IK6/u///u9imDKwGAVhVAk5hptF/B3veEe5Jg/klExhzRBQTji7nn59S51hZJD94YcfXow06aJsxhjcpGNUMNTIMQiPuuiR/AyQrm7ahAVpp//nnXdeMdxe8pKXlP7DgIeTPgZRoIuMuUMPPbToJwK42267NWeccUbRU/KpMWLUxcnlQQcdVMpB9hiJjL9wDCRjBBGtySH9R1TJTLmxAx7yoyvGmrFKngx8eGvPL3/5y6IvxqB88pN37aP+tnCahEV9dAOp037GOZJlo4ZeIS3nnHNOMWKlszNvEwMRMI8YD69//esL6YedsWOjpTaYpaM/+o2ImL+UQ18/+clPljiyhYcwMFQezyGX9UkQLMniM5/5TCFY9IIuqINeGEPIq/nU+K7HVxvGw+KmSVj0j9F/4YUXFqPf5gJCor/abE5BZoxnp1702oaTNcOcQqfNFfQ1xoqwJu6wlp9XHrmSCcyUQQbwjDFjXCCU5MPRY+sOXZYniKT01h3riOtvfvObBW9zzne/+92SFtFCemOuHYZz2zP4kGkSljZ0Mm7RETCWN2zYUOaISea49YZjEpbKSOxDuJQrFmSLu0XG7vInPvGJhrHGiAofu5Mmbs5OpgXEwmXBtpBZsCz2dtIuvvjipQXCTikj0ILEaLDgMGAZBa55i40FnkFugfm3f/u3Erq2cNolYwRYsBh+0mt/+L7wMPjG/ZWwSb50H4sog0ZfGZZkYofRgq9/XoOzC8mQYKSJk8+9eKdbfknOCYtrO88WcGWFc4IDfws9Y4CBwNDlEEQYh8EQsiBr6RmJ2sfQRVgYNww1suYY1YccckjZLbXTr+12yekDA+41r3lNIbfK0reubpqERbvgjbDYJXbK+MIXvnBJ/40Dhi5M4AOrXXfdtYwB44DBxiOWcH/BC15Q9Fq59Fp6nmOEkZt7ONJ5Rq10MGWcIR/qkR8h5I0hBp90QfzogdMIO8xOvxAhRpsTFnWQgdNNRFh54fQjxk6E8awtnCZh0RYbHtEn40n7zQ90hmH8kY98ZKlZTjWcqpgjbJq4p3/Ggw0Uc4s5yIYHnTW/0GF4C81zyufI1JxChtIFCSQH2IszdpzK0H2yVZ84uEl39tlnF3IFa/hrM1lIj3Qhj/JP4qZJWOCOrDvVczrudAqG5kL9M//YNLIRRQ85fTR/IJnwNCcjjXQ0fOhb6GvIwFqhDieJHMKDlCI18Fc23NVd35OtdYcuKstzac0/fr3L3KMNxi/CCn+n+zbfjMuYa0ulY3zQAzqahGUM0DLpwiCQhKVd1ElYeiYsMRGb9K+++uoy0dvhREBe/vKXl1cy7FQhHIiJBdriZsGx+8WgsNBb/BlEDCQLmoXNgmexsbAzyCx4Fj6GtR1Q5ViUGMLqZGxojzwWOosRA8MihkzJHwucxcPiE4aWsA+nnLUkLBbjM888s/TVKxOMUwTSzqeddTuRDNtwXreL3WEkxMJfG3OMK3iSF6MJkXBixciInXo4kpGFXt/tejJ4nfbQA0a8NtmRRhj/8R//sbyu5qSG3BgL5InEMMTJGOFlZDIG6Q5dsDNNpmTc1U2DsITuwAFxY+g48WD0vPjFLy7ExUmUOP2RznihmwgLY00e4+G0004rJ4nkheww1KS1u+vVFLK0Uw1bJIP+e874ZmzBiqzgirySJ/yVy8DzXTbEhCzEBeHXLuNTCHd6Y9eZ/L2mpE7jjFNfjPtB0jJMLtMkLMa40ymYI3Bee4QX3MwL5iAns/qmzeIZov/0T/9U9BYxkQZhNPcg9QinU0f9jvJgYr6CJVIEB8RQPgTD2HCyYBwgPPHaE733Ch+jmFHvHklByrXdvET3efOU8eXaKRBSxVg2PulazF3DsG57Nk3CEmMAXjFP6xudNjdYG8SLoz+csUw/zSOwp9M2lZAVeAv1mY7D0fxjTjO/wMScgHQoj57a2IC558YBvJ2kOyV0zTt185qm176c4kpHvvCnn+YYdZG90Jwkn/XDiaU2R1/bMF4pLsZLEpaVEMr4RUYgCUu79JOw9ExYLJ4WDMYTw4uhxTCzW8Ywcs1IsPsmZJhaHCwCXucSWpwsEBYa7yRbGBgMjGmLOWPMIm+xYcgyMhhkFj87Zgxu9VjcOIuL+qSx8DNYGCiMZ+8hcwjNOMZWyTTCh8VsLQkLYsA4sCBb4C3Cdh5hTUZkwEDQd86uP4wYz7zdXM8YSIxWRiysGIGwQ4gYbUiFkwQyR4IYvgwMBgsjgizgTl6MXe2Qh0GMcNoNpwfSkbey1IfE2GUmbzrE6PadGt8fYKSEjEcQRWuSaRCWqIjRBAuGFFzt6KuPoUbH9dH4gEMYPV7/cpIoD2LAkFUGQ+sVr3hFIeXGlzyMOsQeXvReHdLSba96IYnIJnkxpo0LRInBKI8TTnEMcmONceaZshmCDGhExgkbY84rVL5T5nSFTiNLyteeGD8xhgKDYeE0CYt6Gbb0n44h5Qxg2JsLGMa8V/C0H2mEF5IHa4YpckBGcIYrj/xJDyunKMYPgkKO0pIbPTcOjAsOyaQL6nKCYOzID2f1qYeRbC6kz0FKjFMGPv23MWD8MsLNia7JvMZ+GNZtz6ZJWOgBo1y/jVnEUd8RZOOW3tFdcw/56Efgbf4hLzoHH3lhD2tjw4aJuUl6uCBy6pFPOrpvrSBHGEtP16wp6osNMvU6TXMSrAxpjAuy0D76jsTbNDPfGA/uzT/qNZcZV+PofMghCUsgkWEisByBJCzLMRGThKVnwsLwsvg7HbFwM1rjy5UmeAYug4qxw8drDUKLgl0si7mFxU6w9BYQi5wFiRHC0LKYWzSkt0vJ+A4DjLGgPAsTQ8pCqS2+8GnRsZgxkBkv8Ss0sYBof/h2lRkvVllrSVgYSYwsxgk5IBAMHf/BY5EfRlhg6HUUDsmw4JONPnGMBgSTDMjIYs64UhdsX/aylxVSE9gy4JBGchLHMVTsoooLR38YEAxwZTFYGBcMOvJCXpFNxHVSNy3Cog/IHeLGcGLk0AP9Rx4ZVUg1w4xxzOhhWMHbmKHDDCk793HvFSWYwwx+dJ5MkAxjxWty5GFcCX05mxHGaY/dY4SlduSPGCpDmdJxSL5ynGQy6hhmTjrJxOmBkE6EbLVJH8Yx3qZNWOgpPaKbdtW1OYgE0mIcxA45Q5WRSn/JR5/JSB6vNNE3pEQ5+iwf3ZTONZzML0ipec5pjfTSckiLMuAamGkfGRmfcAvs6bm6Q8891wd6gkgy9JErcea3GI+lojE+tN+rqsbvoIOTOcJJXxdHl/UVGTa+1YVg2HgQ5x62rpEK/XAaZXNFvNMphMEmhTROvMiHvsKSs8EBC3OS+dzrWmRHFnQU+TdvhIOZsSS/dcRYMichnjbCyIUMeHOj8WLdUSfskUmElHw9oz/KgP+4MggdyBOWkE6GicAmBJKwbMKivkrC0jNhCXAt4r6gGK86IA+MAos2Q8jiY4c+FnTpLTYWNQu0HV/GgDgGn4VMvPQWQ+VYVDk79BYcCw2jivHEmGWUKDecV0QsRBYrnlFtAeJqY6vLAhR1DIbKWkvCYrFH0Lwa4TsodvaRGIYA2QRhiQWXsRAnLE6spPEMAWVs14SFLDxnxHGMBuUygJRhhzSMMM8ZJIx0xm/URw7kQjfCaLNjLT8DkOGiXgYcw4ahAE87tUJlRlmD2I9yPy3Com7GDIKFXNtlZmAyeui+ftA/WNFXeirUTx7BRgARD9fGhXjpYgwo2+5/nHKQrR15xpUdeGQGvuHUyWtXyIX+IyxOwThtIGP6An+vUSGMiK7xjPCQF3JkDCIdQVLqMRR1DgunTVjg5FQFsXKawpBlbBoPNkTomLkEFjZRkAHP9Vee2KU3v5AVOcBWuXAiR0aw/OYfmyHKZFybt5TB0U+nKspg5MofjpGN2EY65Zq7nGQhqNpkTMLW2LFJI96uv/nRvOpZFzdNwkLvEGq6RQbGLl03Zs3t9MppiD4FHsYGPM0b5ECvlUHnyAsW5gl46rcyEQr6SqeVp1zP6L9r8oWP0FynLPVw4r3OZ2zKE844Ned4PdMYtF5JZ54zpmwiILH6hVwqZ9w5SJ/lS8ISqGeYCGxCwDyRX7rfhEdcrXvCYlIMb2E1sfLT/B8WBidjxm6jnWXGgAnaIsboscuGhDC+tM3CZLGJV8LszFlgLEaM6zB8LQ52xxi8ntlV5uxmWrA4fbQwWkws/AyA6DNjTh4LD0PXDmgYaww3BpSdvj6dug2+WX7pHnbw1h91W+gt+L4bwqCCg2dkxGiBQTikA6mzgCMLDAi7kDBnbAWxkJ78EBQGHmOAfO1gOhUjYwRT/8PFa2VhZIjXVq8YMfjCidNWpw0MBfUyHBiCDBHyoxeMb7usk7hpEBZ9dmLBGGN4wRt5jt1wJ3521o2BMJQYrYxcBAWxhKEx6g9e4x45ZFwx0Di4KJ98GW/GBnLEmDVmyNh44LTJbjmDCxkxLow9rzE55YnxI63xqGzyR1ph7qSIAUgfyET7xalT2XzMM65HcdpnXOg3V+fbaaedml122WWp7FHKq9PoN91g+DNA9Z0M4IV4GA+IAB2FJ8OYRyr0j6ykQ1r84AQDFkGgl2FgIyxkDB9xDHGvMCJ0yjY+wtFveu/UBG4xFyMsyoQdRy7GGjlqi7nQa1HSK9ecpk7kKH70IPJGXaOG0yQsoQ9IG/0iA/My/aVfcPC6ofnYeDe3O+lAKuk8Mg4LRBoR93qk/DGG6KtTWRsyZKMceNNvJ8nxs9uh/zAhT2md3IS+m+9gHeNQu8lKuxFVG2XmGXMcT670xFikU/LBv9bdUfCnL/IlYRkFrUyzaAgkYWmX+LonLO3dftrIf+Yzn1ked13wVirb5G0BshB7h9xCb3fYAm9RdzLCSLHIqJsRjDwwjhh6diMZvhYS7yyHQWPBsGBbRBhdFnb5GZ0WGQufHWfGlEWFE8eYtsD7DoD3v7WDQcZIZCAyCixydt5igRt3ARqGxawJi7brB8OA4coodZrFALDDqL9wcxpl95ARF/2Vx24+44jx4LUwBhnCYMFnFERaBCWMA2UiNgxtBhYjr97hVx9DHYFlYDNElKMMr+HUhCWwZGzSBYan1wXJnuwYLfqB/JJvtCfyjRNOi7DoF/2k27E7r71eYWEkGwOwgglM4WHMeIWJIUY3jR2yEQdbBirjGlZkCXM/bEC31YX0I390XLyNAu2Qlj7AzqmJ8SAObvIw4hAPMgqnPEYZw44eIPQMTG3TXjptLIcBKW/4UeUxTcKijXSEYYwoI1vaTveQEH0258BC3+Cvz8aD9AzKkAkdNzcxTuu+kY8v7sPQvIX4wx3RNHfVhBG+5jHkVfnhjDP1Ds47ZGW80X/fW4EzIkqeCA8SoE6Ya1Pto+zVwmkSlqjbyRwZ0Fv9hot5x+uOvtNIRuYceNNz84052RzkVMw6QPeNG6TFGJAWHuRp7pCeLloX3MPJ/CM/PQ9ng8CvHqqTU47NGadWZM3VY8BYsvlmo8RcJh/s6ZaNGuOvxr3WjVLYkA91qysJyxCQ8tHCIpCEpV30656w1BNqPRlP64QlJm0LsMWVQWinyqJlseE8s1vGII3XvCxasdPGQKawCI/FHNGw2+sExsmIUwI+dnctLPLabUNkLDIMLW3RBrt16uHUE7tpFg3Gi3edGWPhapwirmuoDbMmLNF+hoEdX7vvnP6GYQQfZMYXqhltHCOacYScMC5ChjCDH9Jg55IhxsGcAWjhJjOGAiOZQS2PXWyyJzNplWmH3jNt4dThHXdlkpX78PFKGCNEuxBfRo5daTJjKIahUQrr8DEtwlI3BYFjKNFPeg8fBpeTIidRSEsQtpAdDBjVdpdrJx5ODDFl0V+Yw8jutXIQbzvEdqzJxe62+hhsiGvUIbQh4KQtDChxZGXc+Q4SgmnHG9miS7DXH4Z6/f2Aep6JOaBud9v1NAkLnOieOYQe0h3ONb2h8/rl52lhwgWBRxadhnhO3+ihV+DIEElhWHM2R6RlVJub7LgzuOmkOuDEwOUQV1gLw8HaHNhGWHwHw8mxeY/xTT4wJ2dzN9mS8yDuo2KvDdMkLNphzkDQnHbbdDAPOC30Shss6CWyjZwhAeFe+tKXlvFO/60ZQa5tWJBJjBVYwly8+RuJQFzor1f3rAXqpwMcHTbmamcMwTLWhBgb0rzoRS8q+u+HR2wcWMPoAbn6oRdkZxD/uuxh1zHekrAMQymfLSoCSVjaJb/uCYvFMzwD38Ts3hfVfamSqyfpdphGj1VWvaulPvd1HZEmFgnGlEWGY4zFcb10nsnPEHDvecRFqxganLBtwWa8cBG6rttjFzNcHR9xk4TaM2vCor0wYwQwrmCr7yEXfeQZFJ57xsMh0kQoXh8Cc7u6Flv3XCzYdIo8xUd5nosns9rJU5c/aEREWq9raKcyGQfKYuRwjJWQ92D5kX+UcBaEBUELna7bBINou2u41I7RhXzXeHke2AvJlle+skIeZCRe/jbnOYc0MCal1QYhR3eC6Hpu/JEBRyZ2zM0n4aLeCCN+WDhNwqJefdFPBq520Us6qm+wo0sxB+m7a8ZtPR8Mtl+ZygqnbNiELNUBH/UqJ2QV6etQOXGqIA8XIXzJTjkIrbTGA2ccOI1TtvhBXxKN8DFtwhI6E3jCly7FPczg596z0MnoW90FfaTfoedwjjEVMlaOdMrlyMo8oezA1fOoRxp5yEAaLrB07WTHvTTK4ZFE7UCM5In0EZZCRvjQBn1IwjICWJlk4RBIwtIu8nVPWGIiFdaT9rROWNphXtxYuK8FYWlDXFvmza11m6ZBWOYNY+2ZBc7qGKeecQjLuGXPowyGtamem4elq59Nisk0CUvdzi3hOvR2UkxH7StShbRsu+225bSY/PmoP9ozanmZLhFYTwgkYWmXZhKWalevHaKMnQQBC8+8EJZJ+rFe8y4KYZmF/MLYGrWuJCybkAoDNcJNT1a+GhfvwZKSsAwiMhtir9YkLMuxz5hEIBBIwhJIbB4mYUnCsrlG9HzHqEjC0jOoPRaXhKVHMMcsKgnLJsDGISqbck12lYRlMvwmyZ2EZRL0Mu96RyAJS7uEk7AkYWnXjJ5ik7D0BOSUiknCMiVgRyg2CcsIIE0xSRKWKYK7StFJWFYBKB8vNAJJWNrFn4QlCUu7ZvQUm4SlJyCnVEwSlikBO0KxSVhGAGmKSZKwTBHcVYpOwrIKQPl4oRFIwtIu/iQsSVjaNaOn2CQsPQE5pWKSsEwJ2BGKTcIyAkhTTJKEZYrgrlJ0EpZVAMrHC41AEpZ28SdhScLSrhk9xSZh6QnIKRWThGVKwI5QbBKWEUCaYpIkLFMEd5Wik7CsAlA+XmgEkrC0iz8JSxKWds3oKTYJS09ATqmYJCxTAnaEYpOwjADSFJMkYZkiuKsUnYRlFYDy8UIjkISlXfxJWJKwtGtGT7FJWHoCckrFJGGZErAjFJuEZQSQppgkCcsUwV2l6CQsqwCUjxcagSQs7eJPwpKEpV0zeopNwtITkFMqJgnLlIAdodgkLCOANMUkSVimCO4qRSdhWQWgfLzQCCRhaRf/uicsdbfjn3SF++yzT/PMZz6zPHafbjoIdCUst99+e5HPAQcc0Jx//vnFX3jhhU36fjF40Yte1Pzt3/5t+Zdp4yDGwplnnlnwF371q18t+J933nnl2n368TGAH3/BBRcUPD/96U8X7E8++eSC+1//+telQbjzzjs3O+ywQ0kf+YwDeSN/hDE+Mnx6nhgFB/PIMcccU/D/yU9+suwf1i+55JLmGc94RnPqqaduNucE/qOGXearUcvektN9+ctfbr7yla8U/F/+8pcvzT/Wi/BLgyEvEoEFQ+D0009vttlmm+bmm29eWpMXDILW7i4UYakR2H///ZOw1IBM6borYfnTn/7U/P3f/33zrGc9q/htt922LG6M6/T9YvDiF7+4+ctf/lImxgg/9alPNc95znOWsEbueUZc+m4YBIZCOky3YXzGGWcU7I2VIIx77LFHs9VWWxXMB/PJG3G1LCIuw6d1dSUc4L7ddtsVb475xS9+UXCHPRlwX//EOxxsAAAgAElEQVT615vnPve5S/NPzEMrldkWHzKOvKOGbWWttzjz+dZbb90IDzrooCX9n9IylMUmAlsUAu95z3vKHH/rrbduUe2edmPXPWH585//3NQ+dpH33nvvohAADiNh2mAvYvldCcuTTz7ZfP/732/sdPKXXnppc/HFF6fvEYOLLrqo4b/73e8W1YyxYaf/t7/9bXPllVc2V1xxRfGXX355w1922WXpJ8AgcBTC9hvf+EZz0003LZsarrnmmiKbGu86b8QbF+EjLsPhOgpHmJlXrr766uahhx5aRljuvffe5qqrrlqm64H1qGEXWYxa9pacjgychBkDCGMQxWUDISMSgQVEIE5YrA31yfsCQrFZl9c9Ydmst9XNvvvum4SlwmNal10JS7THu868QZu+XwycpsRkGAaDe/HpZodAG97iQiaza8ni1GROsZEVDtbhI85YiLgIx5mD4sQm8o4ajlPHlpoWNjGvB94ZJgKJwNMI+A6L0/Nbbrkl14FKKRaKsFgwwuUrYYHEdEOYG3xeh/A+5jhO3tj1r2U3bhnydvHj1FOn7VJX5KnLGec68o8bDtYh/yhu3Hrq9KOUv0hp2jBvi1skTKbd19BH9cR1hFF3yiCQmE6Y+E4H1yx1y0fAK2FeKb3tttu2/M702IN1T1hiEYowsEvCEkhMN4T7JIRlUG5dWhtljBt2qUueceup08+6zlnXp6/pEoF5QqAef6mf8ySZbEsisJgIJGFpl3sSlvwOS7tm9BTLAEjCMvoJT1fYB42uUe9nXV8ahF0Rz3yJQCKQCCQCi4BAEpZ2KSdhScLSrhk9xSZhmT5ZIapRCcpguknEPFjWqPeT1Jl5E4FEIBFIBBKB9YxAEpZ26SZhScLSrhk9xTJiu56w9NSELCYRSAQSgUQgEUgEEoEtAoEkLO1iSsKShKVdM3qKTcLSE5BZTCKQCCQCiUAikAisewSSsLSLOAlLEpZ2zegpFmEx+PxB2Li/EtZTE7KYRCARSAQSgUQgEUgEtggEgrDkH0duLq6FJix+5/qwww5rjj766Obwww9vDj300HIvLrz49N0xgKN/UvfP0vvtt1/BtSueIZNxwq51yTdOPXXaLanOut3jXE/Sx8zbfTwldv1jd8QRRzTHHHNMc+SRRy6N+aOOOqrhJ8F7nPGUaTetuYlFYrHoOvCiF72o/KxxEpYkLAUBP2u89dZbl/8HYUz7zWunALz/DHH/zGc+s3jEJv34GAR+sAxMJ8F1w4YNTRffVXZd6pKna33yzbrOWdc3CTaZd/wxmJitjpk5f8cdd2x22GGHMu/D7NnPfnZZC+r5KuazUcPEfnXsE6PEKHVguQ6YY8w9/jgy3SYEFvqEhRH96KOPln/29s/STzzxRPPkk08W71+QxfFb6r8Jz0O74fiud72rnLBcf/31nbEMWXQJu+LQpa5J9KVrfVtanV3lkfn+2nn8JHYrY2f8mKceeeSRYiQccMABZQ3wp7WT4DbJeM68T6+9iUPisIg6cPrppydh2cRTlq4WlrB4PQmLfeqpp8q/qS8hkhe9I+BXwmA9yfHmqD+Z25aua4fayholrmt98o1SfluarnW2lTVqXNc6M18iMG8I0HkExa4mwuI6XSKQCCQCa4FAEJZJbKa1aPe061z3hMXOWe2xdScpu+++e7PNNtuUZ3bRuNpQmzbwi1S+ExavHk1yvFnLZtzrrliPW0+k71qffFHGuGHXOsetp07ftc7MlwjMGwL0OgnLvEkl25MILCYC8UNFk9hM6xG5dU9YHnrooSb8fffd1/BeA9trr73KblqQFcJNY2w6Km63wHuqk+wW1LIZ97prr8atJ9J3rW9QB6O8UcKudY5S9kpputaZ+RKBeUOAjidhmTepZHsSgcVE4Iwzzihvpfz0pz9t7rrrrsUEoaXX656wtPS5RO27777LXgmrDbOV8mX8+AgkYRkds1oHx7kevYbNU45Tx2DazUvKu0Rgy0WAbidh2XLlly1PBNYTAk5YfMf6pptuKt+jXk99m6QvC09YvCJmsUo3PQT6ICzTa12WnAgkAouOQBKWRdeA7H8iMD8IvPe97y0/VOSVsPw+3Sa5rHvCstKu8D777LP0SlgSlk0KMY2rJCzTQDXLTAQSgb4QSMLSF5JZTiKQCEyKgFfC/LS61+jTPt2EZhKWv/41FWKTPkzlKgnLVGDNQhOBRKBHBOxkeg3jwAMPzDWhR1yzqEQgERgPgSQs7XglYUnC0q4ZPcYmYekRzCwqEUgEpoJAEpapwJqFJgKJwJgIJGFpBywJSxKWds3oMbYLYXEM6ueo/aLbvffe2zzwwAPlj938uduoXt7wjz32WJN+OQYPPvjgsl8hgT3c4By4C8PLEz5+gS/DTb9GuBoWDz/8cPljwnvuuaf8guH9999ffmq9/sXCeBY4Z7hJ5ybFgl4//vjjSzrsv7i4tSYs+qVtq+lPPh99rAVW5q7A19wWMu9xmeu1KHOBeUJbhaP6UdfGTPdIY46Fq+8xz9v3RJKwtA+nJCxJWNo1o8fYLoTl7rvvbl7xileU/2/xZ25e1RjHy8P7w0rezyrz/g8m/SYMYOInvrl60v7MZz7T7LzzzgWzwDLCWg7bbrttk350DGAXOMJtp512as4555yCP6IYpOXggw8u6RLb0bEdFytyeOlLX9rccMMNS/pPPgcddNCavBL2lre8pcjcu+vp+8Vgu+22K19iNt/9wz/8Q/Od73ynyHweP8wD2veSl7yk2X777cv6NeqaFetdhk+v+8NwMP533HHH5uSTT547NUjC0i6SJCxJWNo1o8fYLoTlD3/4QyEoL3jBC5qjjz66+KOOOqoZ1Uce4THHHNMce+yx6VswsCAy0iySQVhcn3XWWc0OO+zQ7Lfffs2hhx66Ge6D2MI3/WgY0ENYHX/88U2QkpNOOmkz7A295z//+cVQSb3tf9zCnw7vuuuuRfd/8pOflNmO/iM95DJLh6Sq20/tG4t0I32/GBx33HHNEUcc0bzqVa8qMr700ktnKeKx67r88suLLuy5555jrVv6mX40DA4//PAyx+62225jy2faGZKwtCOchCUJS7tm9BjbhbDccccdZUfszW9+c48tyaIGEdhjjz3Kri6jyWsSDCeE5YMf/GBZ2H/1q1+VOPHxzPPwg+WNch95FzWMU5Tf/e535bQvdvjgET+zvssuuzR84B7homLWZ79DR88+++xygnjttdeWKBivBWGJ9rz2ta8tY7HPvmZZm+Yq4+6iiy4qp1fzTli0zwnAhRdeWNRjVDmGLmW4OgLGuw0CayB858klYWmXRhKWJCztmtFjbBfC4oTFMf6pp57aY0uyqEEEXv3qVxejjaEcO73SOGFxnH799dcXo3kwX95PjgAdZ5SMQljCYJm81iwhEKDj8F/rE5Zoz2te85pCmOI+w34RMIYQAa/bIS7z7LTP62sXXHDB0uZQzAHDwnnu0zy2DcbG3by5JCztEknCkoSlXTN6jE3C0iOYPRcVhCVOV+w6cUlYega6pbgkLC2gzDAqCcsMwZ6DqpKwzIEQ5qwJSVjmTCCrNGchCYuJK/84chXN6PFxEpYewey5qCQsPQM6RnFJWMYAawpJk7BMAdQ5LjIJyxwLZ42aNq+EJf/pvl0h1j1h8bOAtfdTuV5/ScLSrhDTiE3CMg1U+ykzCUs/OHYppQthYXSl6weBJCz94LillJKEZUuR1OzaOa+E5T3veU/5fs3NN9+89MuRs0Nlfmta94Slht47+vGl1v3337+8vywujYAapf6vk7D0j2lfJSZh6QvJ8ctJwjI+Zn3mSMLSJ5rzX1YSlvmX0axbOM+Exffrbrzxxrn/z6BZymyhCEsN7CGHHFIYbBKWGpXpXCdhmQ6ufZSahKUPFLuVMQphYWQN+m61Za5BBJKwDCKyvu+TsKxv+Xbp3TwTFr9gdtNNN+UJSyXYJCx//WsFR15OA4EkLNNAtZ8yg7A4eYyfzlUyYy5/JawfjFcqZRhh8T8s/CBZifuVysz40RFYibD448i1cPkrYdNF3di55JJLyq9Pbgm/Emb+zV8Jm65OICzWwHlz8UpYEpbNJbPuCUss8BFG932HBYONX0USH2mE6fpDIAlLf1j2XRIjycIYJ40xHqZJWOpxtiVfTyqLNsISv9Y2SFjUtRpWk7Zn0fL7ryG6P/g/LAceeGDBetZ4JGGZHuLGjrkNYfFfO/7fpB5P06u5W8kXX3xx0c34H5ZupWSuGoFa3q65DRs2JGGpQZrz6yQsG3/GlZxqhZ5zuW1RzUvCMr/iSsKy/JWreh4Ydj2pVEclLFHPsLZ4lm48BJKwjIfXlpza+EjCsiVLcPK2D86fSpxXwuJXwhDr/NL95nJPwpKEZXONmMLdPBGWeTLs5qEti0xYGDCDi9hK921pJx0qoxCWuo6V2hbxddp5u9bGeXNJWOZNItNrD/1LwjI9fMctueuc1TWf9kXeCMXNO2G55ZZbNnsLaFyc11v6JCxJWKau0/NEWCxaTz75ZPOnP/2p9Ns999hjjzU/+MEPmj/+8Y/lPl7N8apUuHvvvbe59dZbm/vvv7+55557Shl33313wz/++ONlQlT2I4880jz88MPFP/TQQ819991XnvtJ7TvuuKP56U9/WurzvRFxdlGuuuqq5he/+EXz4x//uPwM9w033FDuo26T7DTcWhCWkEFg/5vf/Kb51a9+tTQxwz5eUav7/P3vf7/gBgvPTeZwChzJEP7CBx54oITw56WX7te//nVz3XXXFVmJIydyF3/llVc2Dz74YJGvuN///vd19a0L3mYJxrxZC8ICO7jD4K677iqY0FcY0UV6HHhFd2ACV/oPVzhyIQdl3X777SX+iSeeKJgq0ziJn5SHNbn4V3ljTBvIWXlf//rXS1suu+yyUjd9uP7660tb5OO0q2+3aITl6quvLtjHWBiGZ4xNMjIOfvSjHxX9CHmE/JQhznxqbiT/iIu0UU/onvs777yz+d73vhePitzJ3LxKD6Xt00Xdi/xKWMgDFjA2jnnzkDFszJIrGUrrmXtjXx464FlgSVY//OEPS7qQlXI587nn0kY5rnlOXLTHHGz+tU6GsxbSO/VHnshX30f6UcKoP0J5krCMgtz8pEnCkoRl6to4T4TFZIVgHHnkkc23v/3tMlmbdBGGN7/5zc1HP/rR8k77z3/+8/ILHdJ+7GMfK//bs/feezcf+MAHmvPOO6859thjm7e97W3NO97xjubEE08sX1KPss8+++zmpJNOKt6z448/vpAUz3/2s581X/ziF5eMxSuuuKKBz2tf+9rmjW98Y3P00Uc3X/jCF0r7jjnmmObMM88s9VtQpuFmTVgsQAzS888/v/nyl7/cfOlLXyoY6rt7ff/qV7/aMK4YzoxczgIn/sMf/nC5txh+5jOfaa655polWJT9u9/9rjnuuOMK5mT0+te/vvnIRz6ytBiq79xzzy3lMdg/97nPNUcddVRz6qmnFhn7siNdeOUrX9m8+93vLvVpq7Sx0EW4VHHHi1kSFtiEsaG5vqNExzk6uNdeezWHHnpo84Y3vKG80x0/p8mI3H333ZvDDz+8YOnn4Ok3GdJlBu0nP/nJMpYQGmXR+RNOOKGE8L/88ssLdggM7MmMsYKAagcdfN/73tfsueeepewzzjij8cV3IXnThTCwOkLdmm09ExY6Go7s4Wfe+vjHP15IonnsiCOOKDiT7b777lueI5ixYRDGp40B+WwOcOLjmXvpv/a1r5WxZLyaV+nJAQccUMaUue2zn/1syRvGq3FnLDJW6YCx8PnPf74Yun2Nr1Lhxg9lwmGRCUvgYS4zz1qHeOPMnPmpT32qzLFkYxwH+ZTPtQ2FD33oQ2XzALkhL3EcuUZIN3xHGAFBZN/5zneWOeXggw9u9ttvvzI3BFkhF/PIOeecUzbutEceczZZ1S5kKOzi5Ku9MpKwdEFy7fIkYUnCMnXtmyfCYmI1aZkUGaTf/OY3i8HMQDrllFMaRozF/P3vf3/z3e9+txjMdoRNpAxqE7UF2SIbE6cv7coX9zWgJnqkIwxr5AgBskBbQBGi173udf+fvfvwtqao0gb+D32KuIQBnFFRAUEBFSSKEkwgggTJSBCWShYJkiQJKphFVESQHCQraRBFEVQQR53BUWfN6m/9itn3rbffc997Qve5596za606naqrqp+9a9d+qqr7NJdeemlz7bXXlo6Eg7zjjjsWx9nXbI477rjSsdf5drU/bcKi3jrM6667rvFsImf1k5/8ZOmgOFU6KphGp+ZLKfClRxxraZFAdUcwOD7yHBTgfvXVV5eZLdd1soiOYOQwyGGQIS+5Iq2cdLNdnHGdMqdMaHd45eSYP9MkLFFFI5fHH398s8022zQIOOJuhoPuaRuek+4jyJxJxAUx53wgODCRFpEhBzMknBhthbzcL9JtAZbkKW+6znGNtO5FaLQPLxmff/75ZasdqgPclY0c5QxLSHD4bcgAiSBHbcSgjJmQCGGzbrjhhjKIgFQK2szb3va2Zosttii6Yv+tb31rs9VWW5W40047LcjE7BpbaoaSvbPl/NpXBzpz+umnl/ZGR8id42rQAWk16CMPbY1e9RE8p7rMM2EJfUAo2F9YiMiCARt2FFFhg221WfJ6+umni81EPJDQM844oxCcrbfeujn66KPLtZhd0/bJkU1nX8nz4osvLrPhrrEj8ojgnLavT0SMTz755NI3sxv6QUEd1D10Ne4ddVvb7sgrCcuoKC5v+rklLEaU8ith01G+WSIsDJWOmxPEEIqmuhlVxERnanYkRhMhxNHi5HKo3Gspg2fSEd9yyy3FCeM4y0swYmRUWGfsOgNvXwcQDrQ8GWFkxIg0QsRAe9lO+UaYTjzxxDKyjVz1FZaDsMCBQ6yj0klyoI3wGX3nKHF4LJ0jK5gaodcJIjGw1anBh4x0uJyhZ555ZmHUF+YcMMu6EBIjhuQmP8fyEn7+858Xp9sIo/NIC/JItvLnOHPGzfQI7q9jOTnBz7QJCyw5r5xDDgrsOBrwvuyyy5obb7yxOCr0FbEhJxiRD4eXUwpTumrJh/McDs5GkDpy057uvPPOsoVlfJqVDLQz8nEfvOm6c6J8jcySZzhFyuP4St91WM0zLLAKe4SEkG98DY1chWhfthxUcqLrrrN32qdr7FQ4u+6Tn3aCRCK1CCi7RVYGcugDbBESdk7ebKf6hNzpErmycWYzza5tv/32ZYvMsAMc67rcUukxf+I56Py8fiUMlnAgN+QAMdEGtbXDDz+8DOYYsDEwp3+MNke+CAg7YTmzdm+QgY1AfMjcPvlq4+9617uaX/7yl8Wea8sG4+iGa8o1OBh5K8fghP6SnTcz5yt9W265ZdELs390ha2cNHj2OspvVglL/VnjaK+TPv9quH/VE5bFhGTpA8NVG8S2Mi92b54fDYFZIixqfvPNNzeWW3HCRKSBUXWe0TSSZEkL8sK4M8hG3Dn39s2S6NA5WUYSdcacPc6gJRXu1QkYJeIoSGOpkmANv7LkLXDuGGgdgnIZZ3XgEJpFsEyHk27Ndx9hOQhLzFIFmdAB7rfffqWDc47zqyMLQ82RokNw0cFaPgYnjhB8GfdY72xZEseHnEQyQDDJRjA7AH9BWrIxSsiB11Eb/SNznbR9Ha53jMi1tg/2Jw3TJizq630U5M4zm92ydjxwtKyHQ0cXOSYcEO2DfIyUGglHvM1SId5mP+BiiZh7YSJP+o/wWc4lKsM1xBt5pPOcUWRJWiO85M9J5bzQdXn6c1+zP3AKXZgU8/r+eSEsSAOSboAFjoN0l/w4qwgIZzKIPZkZyNG+RDJjm8zO0Q92jMwMInB6ObDyYdPohxkdAzJmrQUE2DVtllw5rwgQB5cdpXd0Qz3Dqa1lNu6+Z9bXzzNhgR1M2T3k1QCBNkd2+kN9GhvonMGgsJkGGNhb6eHH/ppdRWjdY8DHAJS83e86u6lf1fZt5W9rgALZNfvCFkmnnSNDSBDb4Br7wZbQgyCu9M21Qfo7jF64r47umWXCkv90v65U546whLIzlElY1lWIPs7MEmEhfx2XEXiOcExDc2w5st5fCAeOEZZWx8ppY2wRD86aZWExGsXYcnB17pxBRlgHzJnj/DL8jK6yERZOchAWRp7Rt1QGydHJcwh16DpwaXX2yusjTJuw6HCMviMeOiSOlGe2vpmz47xoqR48pTcSyIkmM/dwgmDMmYUV3Cxb0Lnp8IzacoIiBv5koNM1kxPOEAdKHpxXjrNOVQft/Rc6QQb0gtzrzi7syCQyWQ7CwiGka5b00GnEgB47hyjCGNaxJG9YwqLN0GkOC0fG6LrlHxxgbUA7MvsShIWsBGWbWYxlYGa0pOEE0Q0ycZ3sug5JWNYgWhMWjiGn1btd7A/99w5LzISREd0RtANESBp4IjXkr91wSOmBAQPEVVqDDmZj6B1dZNecZzflb9khXQn9UJcugjLkO++EBa76L7aWnMhZ/0zW+iEz3uxtDBrBXnqyZXvZB7InQzbaAJC2aoZFQFDYzyOPPLIM7Bl4ogsGOugCwovssr+IsIETtlxfTBeQKUG71w8IoQOxLSfH+KEDdZTFrBIWBNF/RCGO0VeN8cir7pZVT1g00Ig6PfsMl2nnXBI2HX2eNcLiqekCosFAcpo40QyyjtOIoVFJwbIFHaupaU4sA4/UuNcoED3SCZry5qBxgJEN6eRna7TSqKSgc9cxS8t4MkacQh05B03HwAHXEXDUOG9mJDh+fYRpExa4wwix0Dnq2MySIBm2iB8CodPUwWmvZq9gimzoVI3WGe2Hj+UnnCHLnKQlF9c4ziKHS8dsqQus5SFGJ8DJJjudI/x1rmRAZjpR8oqvZNWdnf1JwzQJC5vnmemRci29gB/cwsHUDshlHMLC4SUvuMGQ/trnyHJWlB+EBRlSF/IyYEC+CBMnliy1K/IgP0QxyP2keLfvJ+fV/MeR4eCNOsOijRokIT9tlZPJRokGBsjMrKOgHXBKzWZqa2RNr9hQaThcZOm6fOmImWw2UD7aIjkjROyrdHSH7aQfXQX1TMLySr/nnUB21iCDmRIElH3V75AN26vfojdwM8NPLtoo2ZpJY7elYX+1W3nCl63U/s3aIDTsMfKhj9QH6kvNqBiIIl/6Rc+Uqw8OwuTdNsSIbrBL9Ej+kwTPUkd5zSphIY+cYVlX2quesOgYIzKYGgnFT8KyrjL0dWaWCEs8o07YyL4RQU6S0Xoj6pa++FJXOEm2HGlG2JZza8TJSBMjbu21DlZHbSSfkTeLIo2ttblGkKQXnK8JCwNqxN9Ik87D8glT5kb63adOZnq67LwDA9tpExbPq1ND+nRIsDMTxbmxJM7Ing7UsbQCGcFdp2b0zkwXecBcx0tm0bY54JxuTrGle8iPtIgpDDlPHCvOnE7TvcqDvU5WZ0qmRhA5URwnDn6EdocX58fZTpOwqJ+6e24Y+UIU/dIO4Ev/LcnwvJwMy7Kk5WTQSdc5NEbLOZnwJS9kmkPC+SFHjgvHg7zIStuHN5uLsJAHp0XeBgPcR/elow9m2iyDRJrki8xI20eYZ8ISbctWu9DuOKPkCW/6QZb6TmnIT7Qvam+ODQRwXMnQluw5vHSGg0tXwhkOG8YmsmvIj4EahJleWErEAXaOs6tsZXQR4hnmfYYFljBlN82MsHFso9kO9kDb1/Zqm2pwTXt3D9mZ4SZvx9Lr0+gBvWGTLaU1+MNmsAFsqaj/VB7fSx1Edobs2RV2wT2i5dD0xr6+04qFuCd0cFS9iPti6/5ZJiwG1LXBaDejPu9qTL/qCUsop60GRekFjSpnWKaj0rNIWDipnDMOG0eMseTYGk3y5SQjgZwuI9KMplEeHTIn16ivjtlIsJeEda4cO4ZFjLW/0LUchkHmeAnKYbg57QKCE0aaE28GIV6ANGqt83ZPpC83dfgzbcKCABqR44zq9HRUgrbpWS3VjLX2ziMf9Mc7JtJzhLykax08kmEpkfPkaQlY3ca1dfI0ys9ZdkyGCCI5kY1RXnXQKZIREur9NvuWKIjIE0fO/bU9mVQM0yIsYfvUlxNIz+CF0MGPPnPkYtTULCNHgq5rBxwSMuNMahOW6iE5Zv+k4XxyXCIogxyUGx9SgF0QFjJFVsiLI8RZRkaRSbI2Ok8XnOfwaCMcZLHLMM+EpY0j0oBoBM7bbbddaR/S1TpPjhFDr+iP2RfLuURyNAhET+gRUgpr6QU6xHFFcOmKdsghNZCjvQZRkb6rNhd5JWFpSls2OIFEaMPaqoBs+AqjNhe469cQGYN7EQ3o7LLLLmVQLcgL+4D0xCoDZFS/xdboJ22doyeWhIXu0A91YAdCr2zZFPqobmxMXHNfxFLpEX7ivti6dSUQlpDPCI+6apPOHWGhrIIlEUlYpqPXs0RYwlHlqDOuHCodpZEMnaq1uAgLgoA46MB1rDpdhlXnKhqVMtrEgeZ4GWFiWOkXA8PAKouzJV+zJIIOHSmJJV4cPc47Z1A9dCJGmI0uOUamjFbp5PsI0yYssIEJ59XzcSA4pjBCCpA7TnS8xAlbzjGnyMwAgsHZ1pk5bzkKB1tnKW9kEe4CWegoERZfqBGM9iMtgnvM8OhQOVDIitkb/xuhA3ZepCPKFqKzCztSTo75My3CEvWGD51H9DglcLIkA2HmeCBtlmAgaEZZ4SsgD16OR+yMytp6frLhXDqH2Gkr2kAEaegzGWsPQVjMPApGcem2sug/x8jIviV/ZEwG9AKZ6SPIe7UvCSMDpBPOMRBQ6659ehADMtog8hIvycNdmojhOMaWLTRgY0AB4aUrZlXYNHnREXbSMZJKXwz2aJP0JcqnawZy6ETk3d5GHcbRBffKb54JS/RLBo2QSQN22h35aG/Ig1k2H8AwmAEv9pTtY2MjkiV9Yr/kQ7/IWf4GAOVp0Ed7Ztsds+fKZa/NYuZ6qPYAACAASURBVNMb6ZOwDNZmdtM71mwxOWR4BYG5Iiy14HNJ2PSawCwRFh2XkSTvOSAdHFROlg6TA80hRlgYVcRBZy6GM2ck0FprMytGo/xPgSVcCLAOIIIydODSIT4MNP0zWq0cZQs6hCA61ulyFNRN56CujHp0NJF3l9tpE5ZwOnSCPmWMHOjQ4BrPalSPU60jFZyPAEf4cbLhyQEiH0HenCIBKfHekRkbpFBa+XCUkBPOUuTrfp0u8kJmriOU8iIb16WVhxjPUAqa4GdahEXdY9bPezmIAAfDcyEb9Nnop/pYlkWfLclA8pBHGHJMpEecLZ3TkVp7Di//6YL4wFRwDfmzDl074rgK8kdIkXZBvcgPntH+ECPkB86RX0lc/TldHE+6nTfCwvaQIWy1I4ETyUk1Yk6eMGf3yEM6IfTd1rk6GthBWMjcdbPCVi/4Ul98WdGxdo7IkLf02jydlJdzHFlOMN2IOtbl2I96lEqN+BN1n2fCAmeBjNk7L3b7vy9t1YCdACf9UJBPabVTMonIhppFixBycsxms7cG+QwyeTfxne9850LU34iWfsqXXTEQaBAj5GvbnmGJa1FHx6OGyCO27p/VGZYgLPwR+GZ4BYFVT1hqQddKjrB4qUmjqc/X6XO/GwSWm7CEgVpq62kZZbMlRn7qgGBwuARObN2BtvOVRh5GlM0mCNK4J/LhxDlXB/kbTWbo1WMaAenSDtpG0Yib8xzRdj0nrVcbr2GPlYtEkE3MmCxWF+mQonopnQ4bEdGZuu5Y2Z5dOkuVzDy4JuisXYvYrudiZQ97nrxhzDkQ5K9OynvjG99Y4rB5LZUu6s5B5SjGsVmmeD5bzw4jkY5KG3Wq09kP/XZdqB0b8iEnbSUCJ5mDog5Rvq00rhkUMBIb5dRpIo8ut7NGWLTFjTbaqLNHDPzosQEQJFVgW+KaLVtFLm05hhxiW98z6n48lLy0P/KmL4K8lE1fnHcs3WJlRF6jbCPPeSYso+BVp23LAbnUr4W+1GlH3ZeHPpG9qQO7RC8HhXZ9BqUZ9txrXvOaQqCGTT+tdElYBiM9t4TFH0cmYRmsFF2fXUmExbMziDr5OuhAo6NfX2fqGiMcI/N1HvZ10jFqJW07uO58lNG+3vXxSiIs4XQERuvDAn7kVWPsviAq9fnoAOUXco/rtmKkqbfrK3+Ya9MkLOoTda/3nWs/Y133+nqks4VlyCHyjfNwr69FfnVecY90ISftpi4j0tj2EVY7YYFZYF5jGBgHviG3wLiWbaS1jfTjbCPPuh5RnnN0QNujA6E7UXa7vLhvlK085JeEZRTUXklb4w9Dsoo2GzIadVvXQv6hH7aRd51G/pHGfl2nOt2o+0lYRkVsedPPJWGh7JbqJGGZjvKtNMKyPlRqQ7nYfj162M7LPbVxdxzBeaE+F9f62q40wjIONu4RA/d2Hs6Ho9TG37W4v72dVCbTJizxbO1nqnFpY+M4rre39fPX6TgWS4Uay7pefTgli9Vl1giLpTJdzrDEcw/Cun1OWm2gPt/lPrkiJPKsg2PX6rJq/az3I019/7D77pVXEpZhEVuTLnCPbVwJTKPNjrIlizrIK4iQbR2kdS7ydyy261PfM+x+EpZhkZqNdHNFWAJyiu5LFUlYApF+tyuFsKzPADKWMQJsP9IO2kbHD1X7dXBvjCC5tw7t4/paX/srjbBE59Xu1Nr4RLqQVXRw7XQwd02wreUV9w6ScReyWg7CEs9fP5PnDnzaz+U4rre38AmM5FunbV8LfOP8oPKiXdTXop5R7y63s0hYvGjbdQi5hKwG4evc+tpUyKGLredr5+OcOiwWIv1i15c67375J2FZCqnB1wP/0JNoq3F+1G1dijwXi5Eu5Cddu6xIM842Ccs4qC3fPUlY8h2W3rVvuQlLFw9YG8xBRrM2ol2UN608loOwjPtsIYMa62H3l5LZsPnU6cZ9jrhvOQlL1MG2fib7dWhfq4/rdO182tfax+1y2tencTxLhAUeXnz35cr1YTwuLnWei+2Pm/ck96nLNIJy2IAkLJOhHboDy9qmjpNr5DXqdpyyFrsnCctiyMzm+SQsSVh618wkLL1DPHYBlqHUM406D8FL9z75Gp8ZHbuAFXbjKJ3npI+22gjLpHhM+/6VQFiiPU6KzTB6PWkZs3y/50/CMrmEQo9qstKVjk5eu9FzSMIyOmbLeUcSlikTli4a96A8wpDENpRqUNq4Nq3tuITF8gift52FAMcYVWob68A8trNQ32HrgLAgJvVyEff61GUSljX/PxGyrbfDYrxYuiQsiyEznfOzRlhitrPWMftdhHaeg467KGdW8/C8bJz/mDGL5X9nagxmrd7qyf6q5yyFwKzdB85SHUepy6wSFv/DRk99LpzeZngFgbkiLARvjbpt35811qDbQWMfdL6drn0c/6EQ5yMfeXkW0X5Ex/G1I/dE+rjfdTjE51tdd2xbx0g/6XZcwqLBHnfccWvVKeo3aZ1GvT/KHWY7at7LmT4Jy/KhPyuEZfkQWN6SZ4mwQMJ/lXBSaxuzvAitrtL1e/4rq01YZvEpZ5WwwKrWT/srOWhvBgpmLSAsVj488cQT6323bNbq3Xd95oqw1GD6UzOGixHrstHVpCFIQF2u615Yi5fW6muxrz7qJe0wxiHS13k65/46uF7/L4I0EYYtK9KPsp2EsPgju3gW24ijlN9V2ih7qW1X5U0jnyQs00B5cBlJWAbjMq2zs0JY2BPBH3Ya8a3ty7SwmIdy9MdmLDiC/kA1cJ7FZ0/CMh2pzCph8aee6uZPPOvB5+mgMrulrHrCwkGP6HOz9hmuPj9rHGTDnyGZxYgOCSlQh/aMySD1iD/XoqwxExLp5BekJ7ZRpq307o/gef05k63y/SGcuqifcxHCgMc2zk+6nYSwnHDCCaX4NqGatE7j3B+4LLUdJ+/luqcmLDAWhXldEjZNOSRhmSba65Y1a4TFlytrwrJujfPMJAjo69qEZZL8+rw3CUuf6K7Je1YJSz3DUvtoa2o+n3urnrAsJta99957rZeNF0s3zvlwaL/61a82jz322FojOV5i/vGPf1wcQ84hglGHcBh9zeTuu+9u/KssI4toxTX/FH3//fc3d955Z3PHHXeU7W233VaykUYZ1157bUlP2f1b+fnnn99873vfa9TpiiuuaB588MHmy1/+cvlqinWSjz766MJsU9S/rtck++MSFiNhCIv6eK6ol+20Q9RBPZaKy1G/cfHwZSI4B/H1bALCYgbykUceWSDc45aR962LAB3x7+I6zKOOOqokYAu0VzJ4wxveUP7pXrpJ47qlr31m0vxX2v3x9EHK77vvvgUbQ+f32Wefqeo8ecMwPrUf9mW5cA18VtMWltqXJWHsnT7VuVkN6om8fuMb35i5erb1clYxHKZe7O/OO+88TNKppgnC8uSTT5a+eaqFz3Bhc0lYNLjoHBixLg1X5PWXv/ylOfHEE5sf/ehHZcbj5ptvbsTzzjuvOCg//OEPy7Xnn3++lB+dFMdRuOiii5obb7yxeemll5rPfvaz5d7I2z0IzZe+9KXmqquuai699NLm7W9/+4Ka3Xrrrc2ZZ55Zjs2oXHnlleWdHfl86lOfKvGcc85pDjzwwOa0005rLLtCaDhLyoi4kOGEO+MQlmeffbY4c+9///ubr3zlKyUiWxGvueaaZtgY90y6jXostZ20nGnev8UWW5Q/q6N34SwTt6+Ebbzxxs0ZZ5xRyK+O03MjuZPGpfBb7DpchpX5uOkWK7vL81dffXXBULvlPB199NHFmSID9kh8/etfX/CfFGv3q/tiOuVaF2WspDxg8bWvfa3Zd999m1e/+tXNT3/604VBCPKYNmFhb9l/S8IQJvqxnHElyXLUumprnFSEYJZDEJYjjjii9PHLqQ/tsvkcdWxfH/Z4VNl1nd4z+LCPQbvwrWZFJ+Kle4RFf5DhFQSSsHRMWMD65z//ufn+979fOj5kwEzJ17/+9RJPP/305qCDDipOAifwN7/5Temsbr/99uaWW25pbrrppsZsCcOKVDh3+eWXN+679957F8gNQvT73/++REtLtt9++wWdNuti9FCw/AthUA+GRGeNNDl3wAEHFGf0pJNOKrMyQd5mgbAYfX7rW99aRpn8+7OoM48Y55baMkhxz6RbzswwcdJypnm/56E7HKYgrPTmi1/8YnGa4bfJJpuUTl5anf2kcRgMB6WZBi6Dyu363P/7f/+v6BHd3XTTTZtTTjmlLNWMjoks3vOe9xRnGv6TRuUgn4Oia5Pmv1Lvp8dvfOMbm4cffnhZCYv2xuYefPDB69i5aeh8u4yVKs+l6k3XzVpsttlmjQHDWQ10gR/wlre8pXnVq17VbLDBBhPb3Eltdn2/+kSEZ31tlP2u7eqo+cGWzhx22GEzR1gMLqtbfiVs7VaahKVjwsLZ8P7IL3/5y+aYY44pBOG5554rDolryMSFF17YWNblHZJwUox0IjVIBWXddtttmx122KE59dRTyxKuuG4U1uyD0Vmj32ZGLrjggubQQw9dkCzyUxMWL3D5PPBll11WvroVo6rWyR5yyCFllsVMjvqJXYdxZlgsgbPkzfI55E8Hc8MNNyxEM1fDxvq+cfeVP0oct5xp32cWj77oJEMXyf+ZZ54p2P/gBz8opPm6664rz+940jgKjnVa2Awr83HT1eX1uU+nzbjSb8s+YR9tjywMWii/K31YHx5dlbGS8oEH/NljA0wwFzk9055hCXv70EMPlTr1qXfD5L2S5DhsXUPeZI4MGOyb1UAPX3zxxcZKCbaWjWYnZiWqTx3HrRc5LFekB3RHe/AlLpjPUgjC8tRTTy30C7NUv+Wqy1wSFmB76d7IUu2kdSkE+VpWw+lGYCxBsPzKevWPfvSjZVTVKLaZEsFL8V7G986LGRDLFZAMsyyUVjr5ICw6tosvvri8m2J2xWwEEuOayAH1QqnA8Wf4jjzyyDKrYikcguN+ROYLX/hCc+655zbHHntsmY3pA49xCIu6hxEJIuU4Ynm4/JkYAXiS+SBcnaud6HZhcc+o23Y+83gMs/WFPtrh+sqbp2tt7Ol46HAQltD7aeGi/Cgz6qLs2HdtqRhpu9hO67mXo5zAZznKHqVM9cwwnwgkYRks97knLNFJDIZn/LPIhxkWBMELfg888ECz//77lxE9+5ZmmR1BOAREwz0/+clPyuwJsmMUFsnxEr13URgw9TXqgpDIx5Sh6MX6CJaRxTss7kF0LD3zoj5y4t0XI+bek0GOECckqH6xP/LqYjsJYYnOpb3tol6ZxxqHKPCtMYlzthkSgdWKAJsauo6w+CBLX/3CIAyj7EHXnIvrS20Xuz/PJwKJwMpCIAnLYHklYel4CZSRUQTDjMbmm29eyAXoLf+65JJLypS/JQheqjIdGgFZsXTMS/HuN/Nx/fXXN75gY7nXn/70p5JU/oiKGRFRenlZlxsB6bFcLAIypGwkyFIxMzcf+tCHyqzPXXfdVQhP/a1vZYg6yC5CEpYuUOwnj7YTVJdSX6vP534isJoQqO2cWfckLKtJuvksicDKQyAJy2CZJWHpmLDo/OK/V8xmWBIW4de//nV5J+Wss84qMyTW0UqPHPziF78on/C1fAvBMPNhhkWwnMyL+ta11sEoIKJh9mW77bYrL027boYFYQmH0/sIGoAX75GHj33sY+VFa18g8U/yztczNF6+VoeuQhKWrpDsPp/QkdjWJcQ52wyJwGpFoNbvJCyrVcr5XInAykEgCctgWSVh6ZiwBMw6QUu+zJBE8HItEmOZmBffY9YEcTn88MPL0jHkBVmwXMuLgoKlWtL7TLJ3WRCKOiAsvioUAelBiuRlORjS5Etl8vMyr7y8bB8v/noBTUSAovwul0SMS1jieXKbCCQCiUBfCCw3YenruTLfRCARWJkIJGEZLLckLB0TFp2fWQ/vlZgV8d6IL4IhB0iITxT7xrp93xU36yK6HmQBYfElsSAsRCdfX7SwnCwIi/dSLA8zA2NpmICgWGqGGAnIzj333FO+6uF+L9tL630a/+Wi3Igxs1J34CWTCX+SsEwIYN6eCCQCvSFQ27vlmGHp7cEy40QgEViRCCRhGSy2JCwdExYzE95X8W4IcmIZl+gle/8uH+GFF14o/zz/+OOPF4LjfBAW+95DqdPrVM2kCLHvD898CtmMic8oIyeid2D8qz0CIk/B1v0+QSi96+1lX+re5cxKKbhpyjI032u37C1DIpAIJAKzhEASllmSRtYlEUgEvJfsf1jys8Zr68KqJyzhhLcd8fiscfv82vCMfqTzQw7MstjK3xY5qDvGQeeUFmkQDy/i28rDee/GCPJCRhAQfwwZzxAzL9JZbhaEJK4jUn/4wx/KZ5DdF2XVT+lcxPr8JPs5wzIJenlvIpAI9IlAbQdzhqVPpDPvRCARGAYBfznBFhmIzrAGgVVPWPy/SUT/V+J9Ee+B7LbbbkUhwplfA0l/ezpGJCIIyFIlSRekw731l7yQEtfqznZQfvKI+ywXk37YOCi/cc4lYRkHtbwnEUgEpoFAbUOTsEwD8SwjEUgE1oeAJWFWpVhlw3/N8AoCq56w1M45Bz+c/L322mvqhGUUpVPPmIUxcxLEKmZuIq94vjiWrk4b5+Un1Onrjrq+VqeJ+yfZJmGZBL28NxFIBPpEoLaDSVj6RDrzTgQSgWEQMMOCsHhlIFbODHPfak8zV4SF4Dn8ohkWfxIWzv00BB1leQn/0UcfLUu+Fis3SAOiYRmXF+PjfsfeU/EeTIS4Fsfu9zlj76o8//zz5bQ0dedc70sQZcY28pp0m4RlUgTz/kQgEegLgdoOJmHpC+XMNxFIBIZFAGHhn/p4U22fhr1/taZb9YRlMcH19Q7LYuXFee+l+AKYl/C9R+ILXzvssENjxmf33Xdvdtppp3KdkpphETn80iMq55xzTnkRy7/TP/bYY5HtwmyMF+p9Ccx1fz7pT9BOPfXU8u/2/jzyO9/5Tvlq2MKNU9gZh7AgV4idJXyI129/+9uy7zhjdxjAFb51oHuB/bPPPlveebKVNqI/Oc04HgYGEHyIw2fOYUifLfHU1jNMH4HaIVhOwhLvF9KPcSJdivaZ2zW2ChbR5mI/PmAzfW0brkTvrkY/Zyn7sHEcvZnXe3xlVZuLd4OHk8x0UiVhGYxzEpaOvxI2GOZXzuoY/UHj5z73ufL/LF6ouvrqqwtBifv8hwpiETMmjMkHP/jB5qWXXiqfIfZ/LTfccENz5plnNtdff32ZadHwzMR4R2WfffZprr322vI1MNvLLruspPOJZJ9TtjW7I9QddZTfx3YcwsKQbL/99s0GG2xQRho4Ehm7x8C0884771zEHjrngN684Q1vKNPSG264YSMa8all4CsmGUfDAH5wFGG32WabNZ///OcL/trjtNpkH+18peZZY04+0/6n+8DtmGOOKXqx8cYbN+PEjTbaKNvjemxS2K4tttii/Lly4D5rW/roK6Fbb7110QO2ImzwUlv2PONwGLC/r3/965sjjzxy1lSgScIyWCRJWKZIWMyu+O8VMx5mVi699NIyE3LSSSc19957byExZkb8R4tg6Zo/gPSv9fY/8YlPNEcffXSjY9OpaminnHJKg+QI/qPl4IMPbh566KHyXywcIWXdeOONC38aefvtty98eSzeayk39/gzDmExEsagbLPNNuWZPfdRRx2VsWMMNt1000JCdJJBWOyfffbZzSabbNLsu+++zWGHHVZwJ4M60sOMo2Fw7LHHFgyPO+645sADDyyOyBFHHFGwrx3nHptjZt1CoMZ9OQiLmTV1eP/7318Iyyc/+clmnEi3Mi6OAdu15557FoytNJjlYDCSLloJMooupPwXl38bG/4TH6P+0+1Z0YkkLIMlseoJi46gjgEDQ2Dkol6GMShdpO9i62sPZk8QFMbzvvvuK/+j4l/nr7jiikJUjj/++LJVF7MhiAlS4nvc7kF6/J8JshNLwuIZLDE74IADyj/bIzn2LSFTnhFzMy4M9bSnw8chLJY3GDHkEGfoDwGzKzpGZAWBpXeCWUDG3Gyca3XbyP21bcqoeAQx9IexZhBjhC/y6U/amfMgBOAeYTkIS5RtSbA+KfRgnC3dWs1xHEziHjh/61vfKm3um9/8ZsA+k1t/6kwX1HeUEM+a2+FstD4uVhiMgnPfaZOwDEZ4LgmLxrzHHnssEBbHQt3IB8M12VmzJE8++WR5t+TKK68sn1f+xje+Ud454Sx6b8AfOyI1SAjCgnB4F+WJJ54oX4zQGVn7bimZvIRwgJCZgw46qHwGz/IvpMb/sfhEHjIjxLOWgyn9jENYzLAgLEZFMvSHwK677lpG+cPJiZLMzukwLWFcDp2JeqzmLR2HcRKW5ZVyrd/LSVi0RQ7UuKHuv1bz/rj4uE9/a5BgVCIwSZnj3Kv/trRr1onVOM82S/fAWLubtZCEZbBEkrD833Q8eGojPxiuyc76Stktt9zSWA5i6dc111xTyMkJJ5zQ3HbbbeXdlPPOO68QDS+C+b+Ym266qbzjYjaF8262xIyMGSIzKGYgLBsTEB7vu5jJMSvjfRZlbbnlluXeE088sZQnrWcNojPZUy19dxKWpTFarhRBWGJZStQjCUsg0d82CUt/2I6SM1sYIQnLcCPTdV857f2Q1TjbJCzjoLZ670nCsrJkm4RlioTFbIcvhJ188snlRXgzJQzooYceWpaEXXDBBc2nPvWpQiqCTCA47nHvww8/XGZakBizJj/4wQ/KLIulJRxOX3LyDosOhDPkpX5fF0FuHnjggYXjyHtaqpqEZVpIj15OEpbRMevqjiQsXSE5WT5JWGafpNSkaBJpJ2GZBL3Vd28SlpUl0yQsUyQsSIX3Ryz/8h6KL4FcfvnlCy/Z+8oXEmIpV7wQ739Uzj333EJI3C/6NveXvvSlsjSsVjfTyJaXuIb4IAqnn356s9VWW5X3X8y6IDpe+BfkNY2QhGUaKI9XRhKW8XDr4q4kLF2gOHkeq4WwTI7E6s8hCcvql/EoT5iEZRS0lj9tEpYpEhbvkXjp/eMf/3ghFsiJWRXLwzgvSAwy4YV5aXWkZlgQkHjHwNb7LP5rxQxKBAQnZl28KG025pFHHinR12fk40tkviDmM8hCEpZAb363SViWT/ZJWJYP+7rkJCw1Gqt7PwnL6pbvqE+XhGVUxJY3fRKWKROWn/70p4UwIAt33XVX4/0Vy7h82tTsiE8X+4zh3Xff3XjnBcnwda+asCA2zgXxCBX6zGc+U/6LBXnRCcfSL++5+OTxcoWcYVku5JcuNwnL0hj1lSIJS1/IjpZvEpbR8FrJqZOwrGTpdV/3JCzdY9pnjquesHDeIyIAiILj9773vVP/SlgtyLqTrM/7kpg6iggHouE9lJqweCH/r3/9a0kT+Ujv33EjOO+c4B2XIC+RT6SbxjYJyzRQHq+MJCzj4dbFXUlYukBx8jzChsppJb90PzkSqz+HJCyrX8ajPGESllHQWv60q56wICkROfqcesf1/7BEh2UbcTlFow5BLBbbRj1tZz3MGmGB6aziV9cr9vuUbxKWPtFdf95JWNaPz7Su1jY0Ccu0UF+ecpKwLA/us1pqEpZZlczgeq16wjL4sZvmwx/+cBlNMwsRHVY4iHG82L19n6/rEftt4rLcdRwFg1kiLHBrE5ZZwjLkXW9HwXrUtElYRkWsu/RJWLrDcpKc6vafhGUSJGf/3iQssy+jadYwCcs00Z68rLklLB/60IeSsEyuP0PlkIRlKJhKopqoxP7wd4+ecjURltrxHB2J9d/RR95JWNaP+bSu1rJNwjIt1Icvp5bP8HcNTpmEZTAu83o2CcvKkvyqJyyMXR2Jx/EsLwkbpEL1M7T3B6WfpXOzRlgCG5+M9j6TT037k86Ijl9++eWFd4DMyEgHd+Hpp58uX2FzHDN0cU1an6f2jpEoz/qDBz6U4MML0gjS+P+cG264oXzBzR+ISu9rbv5lPt5Dkm8fYdqExXN4Zs/vK3bPPPNMid7d8ueoomD5Jsydlx4u7rWk038SkY+tP0n1h6lkFu+oeefLOdd9bU9Z5OO6/yN6/PHHSz5kI83tt9/e+LKef5X2vtcLL7xQPjn+/PPPrwV5yHitkxMcJGGZALwOb63luloIS/1M2o12Qt/ta1fsCrtz4403LiDpWh20saeeeqp8wVIbevHFF8u+vLSRCMrSVn72s5+V9hbno5zIN2yl68q+4447SlL3q5svWypDG3dvBNcjxrlxt0lY1iBHHvDW35ARWbO1ArwF58XA35YuPPnkk819991X5B52Mu5xn2vsWzuELjivfJHtlh+9ckz27LS+oc6zvred77jHSVjGRW557ptbwrLHHnss60v3o4q7Nhjt/VHzmnb6WSIsnh1+jOTee+9djDFysO+++zZ77bVXs88++zRm397xjncswMSYXnbZZSVeccUV5Wtu0vsPHZ+kvvLKK4tDLU8duc9S+3S1eMABBzT77bdfc8899xRD/OCDDzZXXXXVAonxmWtfh/MRCF+I++hHP1ry/chHPtIcfvjhzUknndScdtpppQNYqFCHO9MmLDokX8DzWe6vfvWrJZ5zzjml4zzvvPMKcas7Kfs6Ll/T07n+6Ec/anbaaacFbMnhAx/4QMGI04NMwv3AAw8sWzL+/Oc/3/zhD38ocv/yl79c8AXhc889V/6w9YMf/GBz0EEHNe95z3tKOddff32zyy67lP8uOvPMM0sdkaCuQxKWrhEdL79a31YLYYGEtiYg7+eff375hD5C7uuUbN53v/vdYgP9Hxj7hMizYT/84Q/LgN6mm25alk5rM9qBdsJG+erklltuWYiF/DmY2gxbaF8bfec739m8613vKlG70sbrcMkll5R2pW6nnnpqcW7ZVgMHHFP51A4qGUWs8xl1PwnLGsQQTP1aEI6vf/3rknJnWQAAIABJREFUxR7SG1gH/rbORURkv//97xc7ipiw22xZ6JtBot12262QV3mz3TvssEOxr2w3ex3vEquNgTl/7+D/5dhqOuqvHPztQ9RFurZOrHmS8feSsIyP3XLcmYRlBt9hGaQIYawHbQeln6Vzs0RYGF+fhTbLsd1225VRPbMbDHeMLum0GdYw2BxlHfJ1113XmJVBII499thy7M86nWO4zQoYxWdYw7gz3jprREXwmeqLLrqojCY5ZpyRZ+THp6ptOfLKN/rJqTjuuOMWCE7Xcp02YYGNDkrnSC/OPvvsMtKKPCCKHCJ/eupPTs3AkAlZISFmX3784x+XP1I1yoeguM7Z4pAZoRN0hmRIHkZxEUT5CxwWBFMa91599dWFrDjPiSIDurDjjjs2t956ayFWOk5y7TokYeka0fHyY1MjrCbCEs9ky8nUDm6++eZifw499NAyQPO5z32uEX0S/5prril2xuwHR3PPPfcsbcj/fWkTBhq0G3i5Zp+NNDKP0JgF1SbZRCSHDdRu7r///mIzpXdOGu+QvvTSS2V288QTTyx5fOELXyh2VF3ZCUF6ZdT9Xv1co+4nYXkFMbJgg8lVgDPckUszLkEO2EizHWahI+oLkRQDbfrOCy+8sJALeQrsKLsuD/8Zh8jGzDm7bZCJPEMf6It6IKv6BLYacVE/Npwtd586inV7LQVO8JOEZQLwluHWJCxVA+jKKPYhx7pu7f0+yusyz1kiLLBDBJCON73pTcUh1bkyugyjUUZOrFEhaQWG3IgkA6rDO/nkk4tjzdDq5I1IhrMsPXLCuN95551laZHn19nLT+etPCP+gj/79B88nOivfOUrzac//ekysm8GguNupgWpCfJUburwJwiLziX0SvY6jNe+9rWFXAQOXRSr44GvTustb3lLcXxgjUS+9a1vLTjBwbNbrsUJ0jFuu+22ZYvAGb096qijyuwVx2f//fdvODscIcGfpML/pptuKgRQZ2iGxHNceumlZfROOrMxxx9/fNEFJNKSsN13373MkDk2wwUHnXYfIQlLH6iOnmet36uJsITNMItB19k357STQw45pNgits2MCHsTNklbMdqtzRlc4GxqN2ZAtEczNNqJwG4g9GycmRqOrMEDDqs2zWHVZh0Lymf/tHntSjs3q22J9rvf/e4yeKNNswEc2tou1XIqmY3xM8+EJfAjA3I566yzipxhHMFMhwE2OiP9r371q2KvyZSNjchuIq36TYQErkiuvsrsNP1BkBFZ97DFlkOb1THDEmVKp88zsKQf/djHPlb6hm222aYM2vmPOn2kVQ7IStchCUvXiPab36onLIvBx0DqnMKoL5Yuz0+OwCwRlpC3kRsdJAeaseSYMp5GIJEHxCKCkUCj7V/72tfKCLw/9rTMy4wLo/ytb32rMQrJoOpkzb4w/Ka15cWYGzXSAcjXCJSlY9JyCHTYjLKRRiOdRrDM2Fh6ofNWvz6WJHk+nQujbSQUNoEPB2PDDTcsHUycCzwm2XonBXmDi+dDPDg8ntkyE4QxZjmiU7MkDKYIDJIII6PAsD/33HNLZxZLEjhjO++88wJR4fiYgTHTRT5kooP1TEgmMkOe6uGazpTjxokz43P66acvzPRM8tyD7k3CMgiV6Z8LR07Jq4mweB56Ts+0E8tPtQOOKn03cGN2GBExi0vn2QEEA5EwYMEx5Uia2WS3EBuzwKK0HFszNNKZHdWWlWNAwlIvgztmc5QpmGFm75znNJs51a61cc6vwR7tlH3uI8wzYWFP6YO+BLE02EaGCGn0T0gkOerT9I0inXGebXVsBgYZRTojT/mKMdhHvuy0vOnGYYcdVgaG7AfZRZYRGiQFoaEjyDDZI0j0UJ4R1LVr0jKrhAV2bJHZywxrEEjCUjWINbDkXpcIzBphYfQY37e//e2lc+XUHn300WUZEmfWCCAHmYFkVBlRnbDOTsfPwUUkGHwkxv3Iy+9///sywsTwMugMO+fX1uimchEWo5WWmYUB1vlzGjjHRpssCTMDhPSIjLdlUX2EaRMWHR8szT7BE3nxsq2OC246UiN81khH52R0zTsm0pON91N0jAieWRCkQ546z+ggkRHOFDkHWdH5wdm9iJOAIJEhjDleiKNlDvQB9kYHpef0dR2SsHSN6Hj5rVbCQt89m2iGhQNoFJyuiwi/WWMzIwYJzExqn9odIrP55psXR5Itcy+7xFaxd461He3IVrsyyCF/9yIf2p3BHsRIm5avgQk2Tlp2lR0QOMzytixICEe1lk25MOHPPBMWWJIXDNg2A2b6Jn2ambMI7BIZmaUmP9f0dewj2bOXZkuQ3jZhYaulR1jZdenoQgwaGdjzfovARntHk+1HiumC8sgeMWbThdDh2JaTHf0kYekIyCllk4QlCUvvqjZrhEVna7TQtLMRexFBYDwZYyONZlAEhMU0t3W8HFdLKXT0Rpc4ygiIe4xIMbaMNMfbkiIj9jphTrglZQgK4qFsREaHwTi7Rx7OcyR05mYgGGxRWp1/H2HahMVzwNuMllFd+HhGxMWsk9FXRESnCRsdHTzf//73lyVb5ITwWVrASZIP/DhNOk+dLDmSEXmRA6eMbAROl/NkoQNEHM2ecdh0rPA3Okge9ITcOXFBcLqUQRKWLtEcPy96EGG1zbCEkxeDJdqYpY9GtBEJAy3aDCJBx7UhRJ8T6UVpAwTaAVKj7ZgRYdeQG21OvpxUbdRgjxlqDrF2avAgXuzm7AocZM4phxQ5cQ9bpx1b2undNXaQY2w0v+swz4QFluweQmFWS0AS2FFEUz9j0I0OWArGrhrwYQPpgI8u0BP9I9ulD5SenRbpgv6SrBEeukXWbCobLz9lIyxmUdSFDpG/POVN9o4RHgODsYRX/ynUbbWcmPBnVgkL/MxwmmHp+pknhGxZb58rwlIL3teDcknYdHRvlgiLJ7YsgYPMWUcaGGSdMONqa1Rdpy4wxDpwo4ZG8400MdIMPKOCqBg9tKRB4BjrwC1tkK8Xx03v6sjpn6Ve9QwLA89p956GEStT5+pl7S4nAHlRX/XoI0ybsOikdJLICiLHCTKzBDeysK+j8rw6TgZbZwYXDlUsZYG9pQuWE1hmwOkyi0U2MNfBiciRTpC85OkY/mShLhwqOJtRQ5R0lD7GYKZF/RAXy8/6CElY+kB19DzrfmG1ERZocCQRFeSdI+orhpZ4cd4NurB7iIl0otF3AzHeUbBsy6ABgsMuxlf32EH6yzZyMLVnAwPsXhAbjjDiwbFVZgQDBPIyEGRf3tqZWU220LHZlxjQIZ+Ikce423knLDWObC4ZsZ1sK3mye3CPID27aQbMEl6zIq4jMuyjewV6EwNG3rukEyFHSwPZdTpmUMjgkyBfemlwCSGmO7ZIjf4Q6bUcWjRToy5dh1kmLJZk8yXglOEVBOaKsNRC55i87nWvS2WoQelpf9YIS4yWG0FkfM16MNw6X+TD542t8w1Drf46WMSDgQ7DqbOV1nsojLXgHsY7Ogaj84y0tAISo1PWWUjHYLvGUBu1NNLPKTcLwOA7p35GJvsI0yYsnsGoGucECdTpGemFk9kXnZ3nJwv4CDDiEOkkvXfkfuvibTlUSJ3ROfcH9oEV0oKg6PAE+HKOyAdhsUSBcwR/cuDUeY8llqvoLC2JkXfIPfKedJuEZVIEu7m/lutqIyzxbAZMOIzsjpkMjidigcxbAolYcI6cN1hjIMV7ntplfIxEOoMERs7lx9bJ38i89sUOIjcGfbRJZclPeoMCEbQt7Uy+7CYbbMBHOzUK75x2LP8oQzkRI59xtklYXnH62T42U18U7ws5R276nQhkQwZkzGYbQGInDQqRK4LDNrLhCCi77V1QdtWgIDJMx+gLO86WIsLkKxpg0tfp48g9ov4WARbaOhB162I7q4QlfCb9G5wyvILA3BIWL9QmYZlOM4jGx1gNGzhzG220URn5HvaeUdP5dLBg1kMHyghzhL0UyJEOQ4EsMNiIByfbKL1pb8THVLdlEhxjxt059zH+ts5Z5qAzF4KwmJJ33bsaOglRnpYzmXo3a2BZRlwzK9FHWA7CooOEm885k4F9DpIRPM6O0V8dKSzhyJlBWHSkZlR0jL6splMUOWI6TEtIaicHXogIMqpjFGLU1z5SymmzHIW8jQIb2UOKEFdru0V1oo9dhyQsXSM6Xn7h1Lt7tREW7UE7ot+cR9GyVrbH7HC0N04jUsEWakcw8QVBpMK+LfvNPtk6lq92i8iYAfVumaVD2hS7xW7Gfyc51pbVx6APcuJYUBcj+EblLSOLNtzeJmEZT7/ruxACOOpP2FD6gFjQBSTBzL5PG9MBckEy2FdE1cyzrRk4y/nogeWz+kT6Y/bOjLWZEcu+bNlssjZjh9ggPP5rLPJfjLAoIwhLyD229fNMuj/rhCVnWNaW8KonLAxqxBjFZWwZY2sEGcUM/SIwS4SFEUYudLB0gBG05MrsCeOrM2VMTWHrnHXKgmVBjLV3LKy7rr/axRhbTmTkUNARM9SWGXGwzRjQPboWS8IYamRGfWJUCWFCUpTNSVePCOrZR5g2YTHiaskXEqeDQz44UwgC0ojMmEnRWYmIHgzJAqGzbIAsfAkMrpbpGbFDIrVzGNs65kAZJfblIji7pvO1DCacpcAUgTTzghhZc+06uYR96AP/JCyB/vJua9muNsLi2egZMsBOBdGHOEcTuTD67Y9rfdiCgxRBu0IkOJzshMEFWzaQQ2qmBikx4h5LYtk97/9Jp40a/DEwEe+gydusMRvK/qmfdqaOyBNHONqqa4Ni1G+c7bzPsLBrbCyCYTabvWOL2UWzyUb0LdEysCMYqENuzJqwq3VwbDbO1x0NMLHb0sYyMX0ku00XyN+W3tA1SwvJWRqze/pFxxH1BbEsW5m1HtR1mHR/lglLLglbV7qrnrCs+8ivnMnPGi+GTPfnZ4mwMNhGepADBlbQcXKewyCHceSsMqBBKGwdOx8x0tZbeSIbjD1HOK65xzIJZCWm4SMfW522zt/yCvV0Lu617SPoRBjtKE+ZghHRPj5rPOozkJVRWtgHgYtlByEbThNiWcvGffCXNoJnlAfySOaOIzin0xS97zKNkIRlGigvXUbdtlYbYVn66V+Z4aD/bBIbqB0JyEtt++yHTRom30gD32ir2pzIBiozgryN5oddjPO2YQPrc+PuzzthGUd+g7AOmcivlu2o+sIOs9NsuLwi6gMNbsmvzzCrhCVeukcUa/vUJxYrIe8kLDnD0ruezhJhYVyjA2UcI8R5x7UxDoMcRtk2jKptpK23YbQj70F5Si/Uedl3rzIi1vnW+XW1P6uExXNzbOBhnyMTmNnCR7AfmAWWcT5kJY1rjsNhivultR/HiI/8phGSsEwD5aXLCL2Sch4Ji7ZB77WNmFGGRZzTHqSpcVoa1bVTuF8+ESP/aGu20d6ljfKU2Y5r5zza0bwTltHQGj31uLIibza43trvOyRh6RvhbvNPwjKFRtGtyFZebrNEWOqOMDrLNqJhdKWNyJhKH0Y1zkfaemvUqA71tfb5yCfyl9a5CIvdG9cn3c4qYfFcNQ7wCbIRjo1znCrRfmAVmAY2kcb1YYM8Rkk/bL51uiQsNRrLt1/LeR4JSxv5drur8WmnHfZYnmHj2FF5xnFcc2w/ojTtOGx5i6VLwrIYMst/PuRuW4cu9K/Or96fVcKSfxxZS2nNfhKWVuNYA03udYXALBGWmqTUnWF0ovHMrtUGVGcasT5f5xH7HGr7QuQb+dWddJyL/FyLc+61X8eoW5fbWSYs7eeEhQAnGMMNvvYDu8DPuUgby7/i/nLh/34iD9cG6Uadtuv9JCxdIzpefrVeJGFZe6BgPETXvSvapXYaba6dyvm+QxKWvhEeLX96QSdCL+hA6Eeck6aOo5Ww/tRJWNaPz6xdTcIyBSM5a0Kfdn1mibC0n319hjCuhRGtt3Ft0LZOZ79O077WPq7Ttvfbde/ieCURlnjeGpc2vnGtxjU6xLgWW/nZr9PGtdhGmX1sk7D0geroeZJ1hCQsgUS327qdRduqce+2tMVzS8KyODbTvlLrQb1f2+PYr693Wc8kLF2i2X9eSViSsPSuZZMQFl+U6jOszxDW12Zhvw8cVjphmUQu8Fzq/j4wjzyTsAQSy7ulAxGWk7D4gpLyV2uo29pyPWMSluVCft1ya30YZX/dnMY/k4RlfOyW484kLElYete7cQmL/8nx2cU+Q20o2+XU12Zhv12/Lo6TsKy93KAt5y4wXiyPJCyLITPd82QeYTkJi08AJ2EJSfSzTcLSD67j5Nq2tcMej1PWYvckYVkMmdk8v+oJS7sREINzvg3vf1gsF3Ec5yP9bIprZdZqlgnLKIiGboS+LHZvna6dtn2tfbxYnn2dX4mEZRgs2ri25VDnUaetz/e9n4Slb4SHy7/WjeUkLP6fQp+UoT8EkrD0h22XOdc2uW6fXZYhL5/uN7M5ayFfuh8skSQsSVgGa0aHZ8clLJwH//g+K6E2ouurU52ubWzb19rH68u3j2tJWNZeFtYHxovlmYRlMWSme75uo8tJWGIQbbpPP1+lJWFZGfKeVr+YhGVl6EPUMglLEpbQhd62q4Ww9AbQMmZcE5b4KovqzMofRy4jNL0XnYSld4iHKmBWCIs/M+ZAZegPgSQs/WG7EnNOwrKypLbqCUstDl+c0DnZ6hxySViNTn/74xIW8jnhhBMWXozur4bzmzPCYlS5/Xngz33uc6V9PPLII/MLTo9Pzg75t286fvTRR5eSasLYY9GZdQuBWSEsZli8t6c+GbvHgNi/+c1vNt5b+Pa3v93Sgtk6VD/1RLBq/ZytWq782iAsO++888w9SP7T/WCRzCVhAcUHPvCBJCyDdaLzs+MQlmeffXZhfenFF1/cXHTRRY1txm4x2GKLLZpNNtlk4dv3OkeEHmHZeOONG7K79NJLm8svv7zIoC2HSy65pMk4GgYXXHBB88UvfrE577zzig065phjCuZJWDo3PUNlWDuEy7UkTB28w4KwpI3r1sZF/6HdHXzwwaVfmXXC8t3vfrfYhkMOOaS58MILG3UfJrLP48RRyqjr4b5xynNPnc8o++OWWT9j7GtvBu1qGzCU0eg50Wc/+9liC55++umeS1pZ2a96whL/cm3rD+SMJHPI9tprryQsU9LVcQjL7373u2bLLbcso0wbbbRRI3ImMnaLAYO94447Fk3gMAvaBxLyr//6r8VoIjRG+0QjUmYF6pgyGV4mcHv1q19d8KPTm222WXPaaac1f/vb38oHQKbUJLOYCoHaWVlOwnLooYeWwQNtMmM/GLBf7NoNN9xQacDs7d52223NVltt1WywwQYLdlfdl4q1XR5lf6l813d9lHLqtOvLc33X6jxG2a/zdN+rXvWq4k8cccQRM0dYcoZlcJtc9YSlfmyOWDhle++9dxKWGpwe98chLAjmQw891Nx7773Nrbfe2tx+++3NHXfckbFjDOD74IMPFumH46aN/PrXv27uvPPORsd53333NbfcckuRQVsO0mQcDYO77rqrYAnXe+65p3n++ednrsPs0RzMXNah9yq2XIRF2Y899lhpa9meRmtPw+KlrbF3d999d/PCCy/MnB7WFfrrX/9a7LJnU+9ho+cbJw6b/6B045TnnkF5DXNu3PLqMu2zw3yKX/3qVzNnf/MrYXVrWLM/V4Sl7pjyHZY1StD33jiERZ1CXrYRo66OEdCMk2EQOAaugTvSIroe52Adx3X63E8EVjICtU4vJ2Gp6xF4OpexOwzgmnYstCu3s4pAzLA89dRT2edWQlr1hKVt7D27c/EJybZTFukrjHJ3QgQmISzksVgIWeW22w4dnkEEa+wD5/pc7icCKx0Beh1hOQlL1KG9jXaX227tXBvnWT6udXSW65l16waBICz//u//noSlgjQJS2sUOTqFCqPcnRCBJCzddbShn31tQ9SRfxzbDjpXX8/9RGAlIkCvIyRhWTm2KuzRONuQ90rZ1jq6Uuqc9RwfgSQsg7FLwpKEZbBmdHg2CcvKcgIWE304Botdz/OJwEpEoHYGk7CsLFsVNmnU7UrT01pHV1rds76jI5CEZTBmSViSsAzWjA7PjktYOqxCZpUIJAKJwEAEamdwFgnLwErnyUQgEVi1CCRhGSzaJCxJWAZrRodnk7B0CGZmlQgkAp0ikISlUzgzs0QgEZgQgSQsgwFMwpKEZbBmdHg2CUuHYGZWiUAi0CkCSVg6hTMzSwQSgQkRSMIyGMAkLElYBmtGh2eTsHQIZmaVCCQCnSKQhKVTODOzRCARmBCBJCyDAUzCUhEWEOm86g5sMGx5dhQEkrCMglamTQQSgWkiUNv7fIdlmshnWYlAIjAIgSQsg1BpmiQsSVgGa0aHZ5OwdAhmZpUIJAKdIpCEpVM4M7NEIBGYEIEkLIMBnGvCsuGGGzb//Oc/y5/kBTw5wxJIdLdNwtIdlplTIpAIdItAEpZu8czcEoFEYDIE+Ez80/zjyLVxXPWEBSGJ+I9//KPs2+66667Na1/72sY/3dchCUuNRjf7SVi6wTFzSQQSge4RSMLSPaaZYyKQCIyPwGc+85nG8tQkLGtjuOoJy5///Ocm4osvvtiIL7/8cvO+972v2XjjjddGI99hWQePLk4kYekCxcwjEUgE+kAgCUsfqGaeiUAiMC4Cp5xySvOa17ymuf/++5vnn39+3GxW3X2rnrAsJrF99tmned3rXrfOC/Y5w7IYYuOfT8IyPnZ5ZyKQCPSLQBKWfvHN3BOBRGA0BMywWAH0xBNPNFYEZXgFgbkmLKbczj777Obzn/98c9ZZZzWnn356c9ppp5Vo/4wzzhgpnnnmmU0d5TlsrO8bZ3/Ycup045QT9wyDTaTdZZddymjB8ccfX/AZ5t7F0kSeuV1b1xKPxCN1YDIdYBv1CVtvvXWxU13ZypTLZHJJ/BK/edOB3XbbrQyoWxLWfm1hnsnL3BKWvfbaqzjRm266aVkaZvrNS062ETfYYINmlBj3xVZ+o8S4b9TtKGXUaUctp04/LC5GCTgBtma0RMfDRveJ6l2Xn/tr9DSxSCxSB8bTAXYlbFTYp7BRYXvC/tS2M/dH69sSr8QrdWB4HWCDvLLw1FNPrbMKKAnLHCKAsFCKxx57rHn88cebn//8581DDz1U4sMPP9yIjzzySPOzn/2sXHN9qfjoo482EeU7aox7R92OWk6kH7WcOv1SWMR1GB566KHFKbjuuusKpoHvUlv3RqzlUNcj99foXGKRWKQOjK4DYQ9jqz+I/djCNWxabpfuCxOjxCh1YHwdOOKII5KwDOAlcz3DYpRf+N///d+FP4yMd1icGzXGvfWa6AGYL3qqvn+U/UUzHOLCKOXUaYfFxnTmSSedVGZHOAKThroOuf/Kn5wmDolD6sDoOjCKLUp8R8c3MUvMUgfG04HPfvazC0vC+FoZXkEgCUtFWEAySQObJ6UaFieNLQiLF8gyJAKJQCKQCCQCiUAikAgMRiAJy2BckrAkYRmsGUucHYWwnHzyyeUdlCQsS4CalxOBRCARSAQSgURgrhGI/2HhM+VL92tUYa4ICyc7gndY2kvCXBvWER+ULvKeh+2g5x90zgxLEpZ50Ih8xkQgEUgEEoFEIBGYFIEkLIMRTMLSNIXBcraFQU73sOcGQ7w6zw6LSRKW1Sn/fKpEIBFIBBKBRCAR6B6BWBL25JNP5gxLBe9cEhbO9p577lm+XAULU27OZegeAbj640ifBtX4MiQCiUA/CAw7iJDphn8Rth9JZa6JQCKQCCyOQBAW/8OSL92vwWnVE5a6cw7BO5eEZY0S9LkH6yQsfSKceScCryBQ27rcH56UrA+r1K1EIBFIBKaNQBKWwYjPFWExk4K0iO973/tyhmWwTnR6NglLp3BmZonAogisz/HOa+MRmEXBzguJQCKQCPSEAMLiHetcErY2wKuesLz88stNxL/97W/N//zP/5S4xx57JGFZWxd6OeqCsPzzn//MdZy9SOeVTGPmsS5COxHiCyW2EYP0k22G8RH4xz/+UZaisk///d//vdbUv3PCKEQj5JLb9f+HVkiMPocMAjNyqEPqeI1Gd/t///vfC/ZhX7rLOXNKBFY+AvnS/WAZrnrCUj+2TimcrpxhqZHpb39cwvLHP/6x2XXXXcsfTr7uda8rf6KU2+5x2HjjjZvdd999HQW46qqrmje96U3lc9Rw9w5SRCM/IYuNNtqo/COvfDIujQG84AhDeP3bv/1bc8kllxT8tZVw4A488MCC8bCYyjdkktvh2gk5vPvd7154t86A1i677FLkssEGGzQw/Zd/+ZfU6wnbdugmnbdvq/8NcqhfzpAIJAJrEEBY2Cd/tm3ANsMrCMwVYamFvvfeexeFcI6TkCNpNTrd7Y9LWJ577rnigG2yySbN1ltvXeJWW23VZOwWg9e85jUN56wdzjnnnGazzTYrpOXNb35z87a3va1Esthmm21KfPvb39684x3vyDgCBttuu20jbrfdds2WW25ZdPzII49ca3aFLJDFV7/61SWdtEvFyDe3r+C7GA70NfQXWeQ8P/LII0X9zSoiKK9//euLvaHz9D31fPI2HvKAJXw5Y3/5y1/aZiePE4FEoGmanGEZrAZzS1j22WefJCyDdaLTs+MSlueff76MbB5zzDGd1iczWxuB9773vcVJi1HOIO6f+9znCv6PPfbYwqwkYh9LZ6SLtGvnmEdLIRDL7Z555plCFo866qhyCzxjhmXzzTcvpCVwHmYbssnt+peEhd4i5Qj7vffeW/AnF7NT++2334I8lpJlXh8egbAx+++/f8E9ZliGzyFTJgLzgUASlsFyXvWEpe7ow2CCwh9HGuURcoZlsHJ0cRb+9VfCanmE4zCoHDMsRj85c7XcBqXNc+MjYEmMZRowJo/A+uyzzy7LwYw+hxM9fil55yDoyNblAAAgAElEQVQEfvvb3xYbZIZFgD+n2dYMi0gedXRtsTiojDy3OAJ0XB/wwAMPFEylRFg+8IEPLBwvfndeGQcBuvzxj3+82JYkLOMgmPfMAwJJWAZLeS4Jiw4/P2s8WCG6PgvrJCxdo9pdfkFYwglOwtIdtkvllIRlKYT6vZ6EpV98B+WehGUQKnkuEVgbgfiscX4lbG1ckrDkDMvaGtHxURKWjgHtOLskLB0DOkJ2SVhGAKuHpElYegB1iSyTsCwBUF5OBJqmCcKSfxy5tjokYUnCsrZGdHyUhKVjQDvOLglLx4COkF0SlhHA6iFpEpYeQF0iyyQsSwCUlxOBJCyL6kASliQsiypHFxeSsHSBYn95JGHpD9ulck7CshRC/V5PwtIvvoNyT8IyCJU8lwisjUDOsKyNRxwlYUnCErrQyzYJSy+wdpZpEpbOoBw5o2EIi/YzbBy5AnN+QxKW6StAEpbpY77cJYb9Wu56rKTy86X7wdKaK8Ki4UTI/2EJJPrdwjxfuu8X40lyT8IyCXqT3ZuEZTL8Jr07CcukCI5+fxKW0TGbxh19kopJ8679tlGxmOTeUcvqMn1NWOIz+F3mv1LzWvWEZTHB5P+wLIZMt+cZjJqwtHMPY9Y2LJw5nxg9+uij8xOjbdA6PE7C0iGYI2Y1iLD4V2NO3Rvf+MYS6/bRbiMjFpfJWwj4r6ENN9ywuf/++xc+5+1T6vlZ4xZQHR4GYfH/N3/72986zDmzGhWBtm3pw74MKiPO1fWNT+cv5py36xZ5tM/XedqvdWyptO17l/MYYcl/ul9XAnNLWPJ/WNZVhj7OMBJJWPpAtps8k7B0g+M4uYxKWMYpI+9ZHIEkLItj09eVJCx9IbtuvvpeRCAiMiCSgdi1Ay8/+UZ5sa3LkybiujUe/kzkYbu+YABoJYYkLIOltuoJC4Wto0ak0e6xxx4r6o8jl2qYg8W7/GfVeyUTlpWK+7CST8IyLFLdpxuGsHRf6nRznOX2M6uEZZYxm1R7OK/+ODJnWCZFcv330yF+jj/njPgf//EfTcQXX3yx+dWvfrUQX3755YmJhDL//ve/l/JsRb4Xn2sQaamfQB3VTbp2kMdf//rXklf72lLH8nP/Ynkvdf9S1/tqq0lYBiO/6gnLP/7xj6aOfRMWChxlPP/88w2npFbq3//+983TTz+9YBzq9ETEyPz5z39uXnrppSIxeWlwGp60EdvivPfee8tz1unsy09gkP7rv/6r+c///M+1onOMAePSR1DfWSMs6uR5TRc/9dRTCwbVecEW5gIMBTg+88wzzZ/+9KeSnk6tL8j7pz/9aUkS+ZJl6EZ9r7r85je/aX73u9+V02TlD6OUoVzbqE99Xxf70yYssAhM1V9bePzxx4ssYONafV2a+viJJ55otKE6uB74hL5re7/85S+LLNtpA9eQhTZArn/5y18K1jpPMtEutJe+2sasEBY4eGbP/8ILLxTcbD0/ebEtcJUuAszJDT6u0ffatjgWQy5smiAPeNJx6ckC/uxdnT7K6XM7bcLiGT0/TD07ndPm//CHPzQcSMewkAZutmQAq8AXXvbJyvnAF07Oax/yVobr2pe00Ybkad/1CNKzbbYRyFSaOl1cm2Sr7HknLG1cyUSwdY2MI4Tc4rh9L1v46KOPlqg9/vznPy/xF7/4RcmLXj300EPNgw8+2Nx2223NnXfe2dx9993NLbfc0lx33XXND3/4w+aOO+4oPkeUMcw26kX/lKEffeyxx0rZlliqExvsuvYuxvMN0iltQB3DTtR1+OMf/1ieIXyi+lp7X96h36Hr2oH+VR1ci7pHX6GO8g7cQx513uwhgqeNqaNntpWX9uVYHrZ1jLLqvIbZz3dYBqO06glLNPBake2///3v72WGhbKHwv/oRz9qvvvd7xbkGRZKz0Ccd955pbPnsEQj0agEjUjD/+IXv9j40yBBg6L48SycCw4to3PjjTc2yjnggAOaL33pS82tt95ajm+++eYFR1AeJ5xwQiEOp512WhNRo0AmPvnJTzbf+c53FhpyKbSjH3WeJcIS8lEvBvuqq64qTwpL78ucfPLJzac+9anmmGOOKcY3jBq84csJ5lR8+tOfbk488cQGhvA766yzFtI//PDDzfe///1m3333bX7yk5809913X3FMrr/++iLXSy+9tLEfMmfgvv3tb5fORGV0MJdddlkxjspX59CTjsSykM1yEBb6LGgPcIT5Nddc03z5y18uOMBrUCAD75599atfbe65557mrrvuamBNHoEPudonz2uvvbZc+9a3vtWceeaZRe9POumkIl+dtmBLjnT0oIMOKvcdfvjh5Y+7zjjjjFK/q6++utFpdh1mhbB4Lp0xW8UO/PjHP24uvPDCYj/o3qGHHlpsg3340kn26JJLLlmwUTA85ZRTFqJ2wTGl29IjB5wlMvSyu+vsENkfe+yx5T42T/pphWkTlm984xtFd+FBPy+66KLm/PPPL1v7hx12WLHfMOYYwYsuhq3Zf//9i+5Gm/HpU06eQB7sGbvCUTRYwoGiuxxZDqH84Kt9RHshU2Tla1/7WrmvdrBc6zrIfx4JCyz15+HEI5LsF5kgDAhGyNEx+bmmP2ffhEceeWRB3uVE0xRnmXzpEz/gm9/8Zul72DVYP/vss0Unbrrppub2228v9yMX2rv7tEd1opPDBs9CP9XrZz/7Wak/kiJfeQUR94wxcxIkmm4PCmyhOrKz6i1dRHl6vhjQG3R/+1zcKy9ERT3aIeoCC3hpG87BQh/lOR27/9e//nWRBzzJRl09u+uenb/lHNupz48YfV277KWO2Ufv0xmA6KMdLlX+rF6fO8JCEJRszz337IWwhKApKseKQ6wBX3755aWD/uhHP9p85CMfKU7S6aefXpxT9dGwQrk1nCuvvLI555xzSqcTdZZO1HA5FDpc6ZQhrXOcPo618oyoaKg6px133LEYJyMNETVCjVV696lD10F9Z4mwqI8Aa4SC0WZ4v/KVrxQywciKyIuOg2FGLDi98DWaovP/4Ac/WO41kvTAAw+Ua8iotDoaDrI0HAZOMkPGIeMUcg44wzGahMxKpwyyojd05LjjjmtOPfXU4jwHsepaPtMmLFF/On7uuec22gA91TF7/ve9733F+Ld1kc5++MMfLo4tRxmh4yTDiB5HiPbBcZOOvGBr3+gjeXGYv/71r5dbyMI1gwSHHHJIIUycaM4FR05HRG46za7DLBEWSyZuuOGG4jzTNTaBbeAQv+c97ymDLJ///OdLp6wDl/74449vfvCDHxTiya5F27HlvHhPkAOirSGWcOWYf+ELXyidPHwNDGgb8EdgwwZ2jfWg/KZNWJ577rliF+DLrtBFhAWusHGebYlg0MNACDnQcR8DQOYNmhjUYI84RgJ8OTnaif7mYx/7WNF3A1X22RG6Tm6CdiFoZxwvbYAz5pjDNooDWzIa8kf+80JYwoaxSeTKviEd+mTtCrkQEVlkgk649r3vfa/YIVsxBkvog7bSDtqjviSi/szMnPK1MbaQrjkfUR7uU+Y4AQEx82rgiH4ix/LWf3Gw6Y99Uf3p/lJl6TvVyb0wizgKYaHfYX/cJ099vL6cTafj6ilv9Yq8tSdphShfm4IfmbjPsX3320onsuP6MFt5hhxslTNOiP9hQShDj8bJZ7Xdk4SlmortSrgcUE7RNtts02yxxRbFMdZwdQw6DkqogetYKL4QLJoBQB5cM/LI2ATTp/z23cvB1gg1JAyf4TNyz1Hm7OqMOQAR3va2t5WRUk5ZRCN6Rk+9z8OR6KNhqPMsEhakQCfNsWIcOA1BGGCszogHwy/NBRdcUEbEOK/ScQI8G4PFMOl0jHC6l9Mlb52Na0ZEdTacbMZdfuTEuHGiOenvfOc7m5133rk4MGZ43Gt0hfGlE0Za+wjLQVgYdoTw4IMPbq644oryrBzk7bbbrpA7s006ZqSGTsICRpw1mOswOLicMelqvYUtorj99tuXtocsyvviiy8uToO0SI4RTbIjN+2N423fKOVuu+3WHHjggWXWcr/99iszaBzBrsOsEBY4GO1FCMngXe96V9E39sSAiJkTOm8mkZNCbxFNNoVcEJ1ddtml8an4Or75zW8uy/c4IQInma1CIDniHFdEx1Z7gv80wzQJC4zpLSw4SfoCNod+0jfY6xtiYIJDyGbAX6C37DYHKvJiYwyAGMA66qijih3/0Ic+1NBZcoGrgSyyZcfoPIeOjdJ/GMRid8hRX8UWbLvttkWW9CBmIbuUieeYF8ICZ8GWs0xW+mTHfAAkRX/ANyBTgZzIHcFwXl8CM/tsnRUVdYgypEEKpItA15Bb9pNPEvnIU7/EAVcvuiYftjVi5LHYVjumH+6N4N5BARFACOj9YkE+dJuNUM+oh3p5rmFnWOi4gUN9sfopm82CPRvvujzhC0uYksOgoN0YKNBu4WRgMvCWXh3VlQ+32LMPyneYc0FYlKuMDK8gkISlY8JCcRkKhoPTaxRM0HCMqjMeHBUja5xVgQHhnGlASAinWDAi4ZoGhQCF4iIsZlAYgSOPPLI54ogjSueH4Bip41y5L4L7dtppp9JZMRqMJKLDEDAS9mPELe7paguPWSIsMNXBb7311kUeiADjhkxwHMKBch1hUX/XkTsOnFFlhsvyIUZfR6OTQRgZSljDlHNBTkbWjCIz8GTGUJIbUhLGWT6We3BWjJhysI3s62QE+civjzBtwkIvETB6C1POK+w4WNqHZ0cO7XPqOMdmYizh5GCJ9jlZb33rW4tzzbnSGcFT50JmSCJnzbFO2752oV3uvvvuRW5kp2zL0YxOkxGZq1eM0mmvdCNk0aUMZoWw0Fk6aATeAAaHFyGBJ/LHViHPSDaHSwftHg42p4D+Iyr03giydhKjkeQNdw45Z8F17YCjjpi6x+CMAQTlTzNMk7DQSTjAgE4aiGJLOEWwMONnltGghQBfuolIGFCis5tvvnmx49IgGuwVm8OJgiO7pr2wcbacNHqvT9En6VeUESPJynGv0eGYPQ78kXp1Uw91jxjXx93Kb14IC8zgq22x+ZxjbYrdMeDC1tczajBln+gGQtMOiIzBgQhtmbg3ltNG/08vDMLQB8E90rF1MfOiPatn5NfeuhZB3dXNvZ6lzlO+Ua50gnOCgSS2gh4K8lRXDrkQ9WTHLUs1eOEe+bEP+gI+0qCgvvRKme3nUB5/B2nRj8pPWsTdIAwdD9LlmrwE+WgrfCPPoN2SoeuO41kds3/atnblWD5i1GVQnZc6l4RlMEJJWDomLAEzA2HU0GilxmaEQAdjZJlDoGFqRJRcA2IAOGnISRCWaOycBI4awydwnoy8cfw4w5wDjZFjzVHTsBlCjVXeGhSHUOBMKAexQSQ4IZwTBjQaa0nY0Y88Z4mweCwdOkfUCCXHmfHitMKGgYKf0XsdBKPDiYURR1aHwdHkgDGEsOXcmilgAMkIvuTLyeOUwJixM6KKXH7iE58oI/7yFpAYDggSJA/3We5k2UAYRGX3EaZNWDwDneQkISZIu1EsuCDsOgaE0LIh7SMwcp2O0mky8v6DTo7zh1BYPxztxRIAI/7edyEHHbJZAmVpI+51TuA00wOkiIysT9ZWnNcOOesiZ7DrMCuEBRaem9PKSab3CDP8YWjUXsfOdoU8YM3RZrfoPxKJcMPSzBmdlxd5Sss5QXDYQfJiE+g00uCdPnlrg9MM0yQsBofYEMu6EDP4mgmni2wJgmDfUmUBZtpD9AXOeU+RY0QGnEXkHmHhqNF/RADhhKVlfOyH2UODIc6zL+QRzqQ8yV4acpNvyNcACXLpmA2KWCo3wY+2Py+EBUzwg7E+m0wd638MomhzQSQCUmn1TfoAmNdBuyTvCK6HYyxv/RYSxC7C2TXyRpTon3IF9lU/Y6u/UiadcE/EkHfUIcrS3+kD2WJplcuHUSZ7oS/leyA1/BJ1cK+BUv1o+DDqgYgE6ZEvfZWve8O2B37KqHWxjUG7/vEc0ilDveJZ9CFwhzFMpK3bhHvUG5baG3wQK/WT1n36Fc+nTmwaksVGenbXYeT5xg1JWAYjl4SlY8KiUVBinQ3ywBGylIIx4UjprIwqMz6cKE6LwHFmRHRkOnANSD7RmDi+rstfY9ZZaTAcOaNoCAxH2WicEcwYzXc/46jDch9CxHAYPdDJKc++BhkNerCqjHdWnrNGWDwJQ24ZhdEn+/DkHDBQjCvCAh/4ieTJwTZKBE9EEe5ICHmRJWzJjWHT2SMiRjd1TJwRhtiokS28GXvGlCMTLyJzqBk+DoQRUp0NwrqaCAudYOQ5UPHCOzLPIaMrsDfzBccIZg/pP1KhM5AWNo6Rbx2I9qJjg50lYPKGIZnScQ6qGQMy0GlJz0m2PEaeSJK2IY12yvHWVjnlSFXX7WOWCIuOlq7Czegm/Y1lH/SbfiJugo4YTgZk2BXkc9dddy3ygCfZsUcw94w6fLrO/iiDg6ytwZZ86LxykURtbVphmoQlnglZ8zEIukvPPT+CEe0doRHgRe/oMEfQ4BQizV5pF3Bkf9goNofDxBaxNcih9mFfenZI/xOjxbUekyXsyaDGXj3ovHPSR4znGHcrv3kiLIG1LXsTx/BzLATG9g3AkCWZuR73uI+M+A2CY/dFHs7pt+gKP4N9oxfaNT+BnB3rS7RtMRxqeURetlEfZUR9bTnx+i4DEUE8nKMn2rprgsEdumuAKOqPkLATrqmHUJfFRiAV6hfXpXG/shA+z+SeQUE6tl/aOjof/aznFWGiLIO8yjXDoh9WR88jKEd9ET3nDMrAUdB3IzOeRd5IFiIZ5IZ/oH0HRuWmEX+SsAwGLAlLx4QFzBoDw2LEkuNDuXVSHCNT/0gChdQgGAJKz2HjSHHkOE7RaI0AxMgz50CjZBh0+hwAo/XB9jkRRu2UrVPTIAVOnTXjHGFONweEY2hWgNPAubAkYzFjMFh1hjvr+WaNsHhOjgCS6LkZGw4DEgIPTgWnlSwYK3LhVMBQegZLx8CBZsg4E2TJ6ElPHpwAThkngmNuBgUOdMJMjvI4EEa5HCtXR6XT4RyK5KIenA3EtI+wHDMsdIIjhahxihl8s46cN04WJ4wzRm8jIJdG9GEKQ4MB2gmMyAWO2pEtbMmUHHVI0ZlxwpTDKZBWPTjYsNe50AcyICdy1I60F2WqY9dhVggLR4BNga93dzjyRtjDPumo6SH7IejEkRofrYjBDiRFmyAP5BL28Asngy3i6JiFYQfZJzKSlh6wRQYOphmmTVhC3+DApsPMc7MPZqRgZ0ZLoLP6DM49okjXLetVZ/bCOYNYZCRtYKlt6Bve+973FrtkoIQO03O2i7MmhK1ny5TNyY0+Rz132GGHhVFpxxHLzRP8KHeeCAuo4Ap3jj27ImpD9N0svT6EsytwmtlBzj6syBb2gpkXbUp+IT/XpIlj6aIM54U6vWtxruz830/kE2U5bT+iY/fyMeicIH/Ovv4PAYq8nTcApH8T1I0fw1YEaXZevUTp2UKkBGHR30VwL2KgXFiFPYlncl0d4au/UBd9CH12n3Llp59B8vUtcET+PIdzrsnf/eEzKd81eagfHyAIC7m5xhcT9Nl8Osfq4tizxlKzeJZRtklYBqOVhKUHwkLpkQmdus6D4iIuGpPRr/pdE2IxmmJZAOcKM+cgCRqjvIxk2tf5aLSWmJkRMK1pKQFGzwlzTeekUSJNGqrGpmzR6ALDotPTgWmERjWNhgyagh6sMqOd1YBnibDAg7PKYIWhZdw4AZxkjikZmdFANOHOmErPsHHsEBNpObfy46hxIODLkNrqgBhBxIgDTb5kxlmDtQ5LPspjFMlDZ0RmHAvpEB+ElH6YpesjLAdh8RycNiQEgYctBwvJ89zwojNBWGAsrY5Ie9A52cIK0XDMmXZMljqMaEdkDWd6DkOkHxGNjpJTSJauI4U6MzM2gg6Kc4WYRmfUpQxmhbBwNNgLJAP54/zaqp+gMzagoj0I4Zh47wfxYD/MMMLRYEjYG6SHA8IG0HNtgZ4jLfB2rzLhqy0FISqFTOFnmoSFDtM5pITuc2jYHDrLdoQTRd8Ejqv2wPHTL3C8kEk2G570Ho6Iv7zJzIyNtgNjS8s4VfoMMmFL2CP3uV+7ULaPrQSxD8g5hd7hC6dQ+oiRZtwtezovhCVsDPvEOSZLdsSxPpp/QO/Jnj7AWD9OlghLG3P9g2tkB0c6Qh/4AxG1M/ucauWzk/oPtjTS2PIDnGcv9Ue267Nx6iI/RFvaCGytc9p5BGWyCbHcTV3pnRUI0oX9cN6zOPYcBps8fwy2xjUkB178HM8c90nr3sCC/yONGGW7jijCXhvQhyOInllfrp+WHm7u184iBGHx3OThXsG95AkvQV+uT1E3aR2rb9ShJBrxJwnLYMCSsHRMWKJhU1zGiPPpnAap4zAqxknSWbquUWooYbA4B9Z6U34NkuLr6OUXIxDS6Kw0Lk4Y50yDo+ScbY6Djsx5jQZBUr6GrbM0CqdRabgIFeecEVLProM8Z4mweD7YwsZyvXjfBEk00g5zDq4RfB0Jg8fIMsBw5aTpaMzG6NjJgFzMpDDcMGYEjZwaOeYk6BiM3nMAOXPSWloGG/erDyfD/fJEeDgprjOmiJW8+gjLQVh0aJwkz6vDgx/iraOir/AyoqyTEOBAhxEIuGgzEVyDmTaiY3JN1G7IgDzJlQ7qcJAeS720IUF70C7JQyeu40GO3M+h1H4NAmijHMMuwywRFnro2ZEML3izJWShc2YfEEky4zzAHMZmZMgI0XMvmdki4BwmMuMUC5aoctaRdvloSxwndowdVA7bWMu2S6wH5TVNwqJ8+oswm61F2Ogcp4cjRy/1AbZsDtvMtsfIO/uPsMCfvrNRsKSn9JJDFnqsDzCTGDocxJ9stAF5kbdZXESz7Vhph/SAnNkz24iDcBzlnPzmgbBEG6HPbBAbJwqcdzKCM/uuf0FiBHJF4GvbVy40TRnQImd5k7l8kHz9VESkhm6FP2Hg1DWzNvJl7yJK57wBI858kNlBdk6Z9IbNjoEM6dhcjr1nlEZg0/WXdEwgc3qrrgZvI3/n2XP3sq/yZi/0d3RW24CfZ/A8MNI25IFsaD/6SvnJy7V2UD/kQj8Ma/dGPaMenmtQaBMWMhPWR1jUoUvC4jmjnoPqOG/nkrB0TFhqBWI8jCBrwF585PjESIYGzCnmnAkarkaHeHCovOgaX6zSWAWKywgwWjofTkGs+3cfB5wjxvnVKRoR1Uh1TJxijdfIm6UIRvU4ERxojgQHfLGGWwof84dxmCXCoj6MFqLGiJEHo+0rRzDnFOisjSjblwb542QxkAwIR8ysikBmAhnBlOE1aknu0sKUbNzD+DKw8jHyGYafweYQhvMhP/UkP7KzZKSv0eflICwcVSP4OieYwAhhQarptSUqSAPd1S4Eo81e7Haeg8yZQ1LoraVJCKEOVyBfhJTMbDnHHIDoqGCpPPLRedOFCPbNaBpUoBscCASVfMxCdBlmhbCwK3BCQNgD8mFDODh0T0dNTtoC8sd2ue7DBtLCn9NFp2PpJILNaSYTGMIUIdQ2tB3OOzumzXGWOCfKQ2anFaZJWGCA+CEk8DTwwXazxfSZzUFm6De9hA17DvcIdB654NjBPNoIG+QcmwNvgy8+T8zuIDFkqDz9CdwRHu1G+0Auw+7TATJEKLRDQZuRv2i/HaNuw27lMw+EZRAe2pnnJ1My4NzGucCa7WKTFiMsZljCVyA36dklco/o2HlBn88PoVPsLf2xFbU1aUX9Uq1r7fqrt/LoGYfcvmdwLzsW5MR9ziNjEdyrfO3evmArahd8E8Rc3uphnx8Tz0BH9a9BrOUvTczSwlDd1SHyd45N0t60A+XoZ52P8tWdLYu6023Xoz3op+XhvL4gnskySmQm+iZE1KADG6Z89dV+yGPcoL3mH0eui96qJyz1I1MmCil6gfG1r31tueyYUnYdGAWNUWPS2KLBqIeoQbZHBdTFPRquqKFFA4rOQn7uc15a+bhPA9KYRefDIGqQ7pVeI3VNXTSwSK+cPjCQ56wRFnWCVcgdBnBhYGzr6Jq0MIz08IOlfAIzWMPUljzcR8aC+xhNcrPvXmlsBecZzhiBKyebppwzmqNjCeMY17raLgdh8dxh3KMt0D/YGVk2ChxkLvD1/DopOEWUxr5OWVuRL3zl41jHKl+djvvhLJJltEcEU76CsuiAdus+MpSfrXtCnl1hr346JY5nBM+gHm9605tKjPN9bpUHn3jmOCYjbQEGzsUxfGGmY3Yf/XSNU0ImdBvOnGN4wi50WNtxTZ4GXCwDca9jecXzK0/sM/RNWOIZbD0fLGxFONBR+NJPuiAa3IIvLOBS5xF2PvAkL9el1wa0HdganSYLecg/2gt5hV1StvxrnTaCzVG2lS7KjjYax/V2VPnIa54IS2AVOJEP+0LWAjtEDgK9IGMEIwhLufB/Pxx6hIW85QvLyD+2dXr7ZifkRz/kH+ls6+A4dKF9TTr3CgbR2MwI6qL+nst9tvSSjkbwvJx/uh11tnWvAQ9tAR4G7NgJNsD9Yc/pLzIds1DqEuXScXmJ0itLnvIRopy4J9LoY+BpMBI2gvrXOBhYiL6enRIFA2sIirLj2CyONiN/z4JguXfcgLDwTxElz5rhFQTmirDUQvcSKWdBiIZcX+9qXwOQf8RoXNE4bFdz8HyzRFhGwbqW0ST7yiT3CJFXHMe2fV5HEJ1ZpOl6uxyEZX3PEB3MoDSBT3sbbardxgJz2/Y9cVynCWcurtn2GXRss0JY6mdebD+wgolONBwK2ziuMXM+7gnZ2MI5tpFGuoh1+X3iP03CUj9Tez+esX0+8FjfNu6Fp3RCpA/5BPbyHxQifX1tsbR1mnH2lTUvhKUtT3g5x1nm/GoHSCwHuLb1nG1kvh0snUQ+QtawHFRG3OcacmF51jCEpc4r8oita1bwvFwAABFOSURBVIK6xuCbOiPBZl7NZCBZCI3rVi1w+K0g4cwjEQb0Qtc8gxl0RIbtqAmLNKGztgZHkIuasMT10HHEXF6Wv5mdDCffrK6IyKiXa/Aw2wMbBEuon92+/GNQkZwsU0MeBIMB9TssiBiZBkYGA8zAIG7jhiQsg5Fb9YQFU68jRRat0+57hgXk0UDb27qBDBbN6jjrOZOwrC3LYWQvDZ0RGM++wqwRlvo5YTBsCLyinQ173zDpQl7DpB0lzUojLIPkEXgPulZjEelCp+MaW1xfsx94L5Vn5DHudhYIy/rq7vnb2NTH67vXNc5Y23bU2MZ+O58oI67Htp1unGN5zzNh4eB7Z4TDzOEnI449Zxw24WiTWxxz9Dm/lk6Ki8mHnOrguCvCEvmqr6VRMZCmLlYGICycejM6SASSYZYBibCESvqot600lubGTJJZxphhqdPZN8NSE5b6euAEHzOLyAnyIn8BOTErZSbFrAjSgRDKw70iQmK2JPS8xtE1dUdQzB67z6oHecUskvxgAhv5wMCzJGEJreluu+oJy2JQeWehb8JC8evGVe8PahyL1XUln/ecSVjWJh0h+1qug86F0WUYGdY+wqwRFm1Epw2PCIFNbOt2tNi+tK7V27i/3kYZsa2vtfcjTVfblUZY4Ekn4RIhMAo5xHnb0F/7kS7ujeNwOOL+kFlcr/Pren8WCMug54xzS20Dj7ZMOE7tc20ZLJZ333KQv3dqNtxwwwWHL55jtW1hHME+u2Y2wkwJJz7IOsLinQdtATkx68JJNyPAoTcrYMZC5HiHjNoyjLZTl2mZoFmHSWdYIk9bDrxZBOUJ8ZzqH23evudzTB+liXrbuo68ceqRAgTHsi9L5Fyr066PsNTp3Ccq01a5ZjrM8kQd4jkCe/dLbwbGjEpg6noEs0oIiyVeziMs8lVvAdlEvjwLgoikdUVYlBWYRn3mebvqCUsoYDQYwrbv5fO+CUuUVTequj7zoHied6USluWUT+hJ37oza4Qlnju2w8og0se2fV+cb2+XSte+3uXxSiMsbewWOw6MFrvePk/H2+fiOPLqY9s3YRm3zp59lBDpA7PYjppH3BfbUe4fNq28g7DEOwDD3ruS03GYERCzK+HcwoLuc6gt9TIwhawYoUdiEBRkxcyFJWRG8S2tWqy9RF8ROHF0zTggSGYHlNdF4Jibxaid+niWmKlQzmL1lLYd4z0VxAHZqK+r+2IzLPHMkb79fOoZ75JIG6TGVoAR2SAZ5ODYtag7EmM2Jb6055nZbTM10ggIizTKITtyVueYgSmJRvzJl+4HA5aEZQrvsESjikawWOMaLKKVfdazTkJYfM1GHvMWQkf61p3VQlhCP1aSrqxWwhK628U25NrHdlYJy7jP2sZ7lHza9zruI8h3XghLOLRG4s2oWJpkJiXIQ2COpHgHQnoOP6fY7AOSYmbErAtHuu1Mx/31Nhxq71lwnC3LQnw41dJ1EZQhP++gIBocdXWTPwffsfpz3uu6rW8/ZlEQlsgr0rcJi/N1v2g/0rafzwyTWSr5q7PlWxGVZd9zmBGRVtkhN8+JOJrVig/iIDNkJAbpkS+5yqurEP/DQo5RTld5r+R8krBMgbBEY2pvV7LiDFt3zzwuYfFCss8By2PeQuhKbZjjXJd4rDbCspL0JAnLuiOttY53qeeD9CIJyxpU2rj3hb1854WwBLqceMQDaTHiHw5oYO44ZgHc43w4xRxojnP0A3HPYltpLa+yhCleQDczow5dBuUgJIiW2QnvsMQskNkGs0ied7F6ts+3CUtd1//f3pm0SNEEYfgX6XhwxgVBUI/qRdSLB8GrP8CTDKgI7rgrHkVBxN/hQcR9RxQUQQVR3PBSH09qjGF92bV19nRn11uQZHZWLhFPRmZVdG3msJjTUK7rf/t6pLmdi1vNeE0yLwTAsbCAI4JDx+1dvNEQRuas0CbP1XB1CkeGjTw2yjBm1i+8aR/HM9VmDgsMTaZUbefcjhyWETssORtHCtmZ1F0dFm7Zw2FhwtpikUKmXNqwBTEWp9Jh0hyWVHrl0M6kOCw5sBqFjNPmsIyCUeo2Wct56L4Pz7AYOzvB5SSfre163ubYR1mcHE6++cefZ01wftq0YXLXxehFP1xhwHnhagAxDgb92jMede2wn2dXuM3KOw1WD0eAZzlw9tpu3O5FfeSBB/1YsCsstMvtW+hDYCNGfrviU9UvZXirG32l2uSwxEnKYZHDEreMRLkslMM4LHzgj8VjFAtuIhVH1gw6DwqpOpXDkopk+3bksLRnlrKGHJaUNJu1xVrel7eExYiMej2P9bkYeZysc5WIk3w76W/TL84cD/PblQtfFwcMp4syozwPiI2Nl6MqbbeSddE91q4clhiVopDDIoclbhmJclkEhnFY5ufnF07aE4mUTTOxBdTyUikhhyUVyfbtyGFpzyxlDTksKWk2a0sOS/xPqGb0pr9U3fGtbv8whKxtH7dpD9umbopNDkucohwWOSxxy0iUywTu4rBwTyu3DchhGe0BbsuWLcXs7OzCw4a26J48eTLw5y0zds91IpNQM38I8MEx/+FI5gr/1BGvXbt20b5039cB8Q6LnWgwHrt27Up24tFXtoP0hrPdEsY/6n3b0D8WcuXA8YI1y64wdNWDqyccZ7hCY3PR2rL8Yfuw9gbFXcfFjo+2dg9qv02+HJY4LTkscljilpEol0Wgq8OydOnSYvfu3QtfBubhwcUMPEQ4zsADjYNCKrk2bdoUXu9tBwwWXw5CJ06cCI7MtWvXAnMcl0Gy9DW/6xjwgKp9ewGnnDfhwZwx4KDHGKxZs6ZYvXr1/5hTT2E4Bowbr4eF+8zMTHhgmOUO7jgsXHVkjLBr4q5B4/R3nMzmebjZvoFmH9Yrn6AmOvSomUUkYCf7XbukPmugBWuvnM9+v4/0JGzIxfqRSh45LPFRlcMihyVuGYlymcBdHBb+fV63bl34l5+TOh7AX758eTiJ5orAYgROXsYZ0HlQSCUXbNevXx9OlG3IWXwvXLhQrFq1Kug/NzcXYsoq/GUwaGzq8pcsWRLsF64rVqwoDhw48M+93xz4Nm7cWFCOMhaweeaAwvAMmD/Lli0LNo4DwzqFw7hhw4Zg4zgy/GFCIN0l0L7Cbwa2hq9cubKwwOt6tU0HAebPMCfr1DVnJeaUVO2bBIKm/zAMvB5yWDyNv2k5LH8+HsSE0JaeABO4i8PC20KuXLlSnDlzpuD2JOLFDqdPny7GGU6dOlUMCqnkOn/+fHH16tVwsLDRZy7w7zL76P/ixYvFsWPHxsoilb4p2xnGHrkdCafw0qVL4YpJ+XaC69evB3s/d+5cYeHs2bOLPgeG0XGS68IS+758+fLC9xOw+xs3bizMOc+d8m2D1Vd8LtgtNo9NMAdZ21O+VcnWLsXjIWAn7F17t/pd4q59pqzn5U7RLh+O5I8pvdb4X5q9clhMdYxrx44d4Z808kZ9b6T128cY1lUOSxUTcyItriqrfd0JcOLAONlGGub8009g4zf5Cn8ZGK8usfG2uNyGjUmZN+OgMDyDGPdYXnlc9Ls7AW/L2DCbmHfnOW01vX143Xy+pf3+aUwfPHgw3NVg34CZRh276DT1Dgvv37bAh4AIvHd727ZtwSCAZotnF4CqU02ABaarw1LdsvamJMA4aRMBERABERCBcRAwZyR2LKraNw5ZR90nV1i4nZRndvl+jLbfBKbeYfED7ScCD/5xHzNbyoelfH9K//4HTQ6LLEEEREAEREAEREAE6glwhQWH5dGjR7p10uHqlcPi9C527twZHmgmD4dFV1k8nXRpnEQ5LOl4qiUREAEREAEREIHpJYDDwstbnj59qtsm3TDLYZHD4swhfVIOS3qmalEEREAEREAERGA6CchhiY+rHBY5LHHLSJQrhyURSDUjAiIgAiIgAiIw9QTksMSHWA6LHJa4ZSTKlcOSCKSaEQEREAEREAERmHoCcljiQ9xrh4WPWdnW5RkW6tgrkUkTOEHPNQzDAp2NgY9pk8kH6xcvXlgXY4ltfMbS+Yg6te935GpzZbkNkz1X5vd7u8opbToh8zRuNvenSTfGyl7G4m1wktN1/JGd9SL2/ZNJ1qtKNnRmrOrWwTIba3MS1xEv6zSuGcyradxSHrP4mDDfYXn58uU0ouqsU68dFh5qOnLkSPgo3qFDh4rDhw8XxHXByvEw+b59+8JD5aQJnJzzSrocAx/04gur6ICOTQKsqIO+1CsH2ti+fXt448XevXtr2daxb7uf/o8ePRr6tbFB3tzD8ePHg0779+/PXhc/FjZWNp/8PCrbVi6/bY1BXnRta8OTWJ55xcdEGS+b+5MoZxOZ/DpnY8UJA8Hb5qSn0dXr4tPsw/5YL+bn5/8px75J122QfHxUGPurGyvPxvT1a8skpZGP9R1bRG8vux/T3NJ8OBSdWNtzkx25B4WqY1ZXu9q6dasclohb00uHhX9X9uzZU8zOzoY3MeDJ8go54rrAq5C5WkB5YpweAmn/2/JzimdmZoIu6NhEbspVBVjC2Jjx27MyZqOOy2PVRLdJL4NOyFjFP7d9xhy5Y/OQfCuTU2z2nav8daz9eJHOLZRtzdZB9Pa6lctN2m/W2kEBG0QvWwuR3ZedNF2aysMYeT1i6XJb3j7L+8b9G9lsvuVke0242XxijJqUn5QyyDs3NxcNyOjHy9vWsOnNmzcXr1+/jl4RjZzL9yKrlw4LI/vu3bvwyrjbt2+HmNfHPXv2rFF48OBBce/eveLJkyfhNifix48fh0CatnIMN2/eDO/9hgPv/24S0Nt0fv78eVEOtGV8YEL5hw8fLlpgrO7cuRP687I00W2Sy/BBKeTjknGOthaTGTu5f/9+sBG+8EvwczJWJ4c81grGC1mx/0m2q6ayMYeZV+iGXsx7WwNzi7E7C+h/69atoJOtFznYGDL6uVJOM69sHbTx8mVy0bEsJ8dvbO/Vq1f/O/aQj47UsWOQ2Te/yfcMJiXN/LGxQiaTPbd5VZY352NWlW3cvXs3nF/YuY+tJcPE2Ca30P/69Uuf3HCuWO8cFn/PKldaPn/+7HA0S1Ln27dvrQ3px48fzTpwpX7+/Ol+NU9i6G23t2/fNqpi9/9SGJ269GV6WVt1MX1Rx+7prStv+5GPL8Vyj3Nss3LEdm8tfbS1C+rQV6wf30c5jUxfv35t/dzThw8fGvMwvZERhmUZBv22etg626By5XzK0pfZRXl/1W/+SLBnB6z/uph78umvzYYMJl+bel3mMOP75cuXNt2Est+/f29dJ/Z8QpNGbD42KWtl3r9/H+w9xr48xja36KcNQ9qh/Ri/ch/+NzIyvjbGfl85bfoQIyd6Uca2cnn7bfuJ0Qk5bV9dTB3WClsv6srbfuphT7ZZPnHVBj/sKTZW1Iu1Qx51/L6qtPVv41tV1u+zet4G/f6q9Js3bxa4Wzt1MTZh3OvK+v1ePp9flaYv5G+zMYc/ffq0cDwq1/U8bF4NmiPluv43ddCpCwsbY98eaS9bOf3x48eFeVJX1tqlDWQstzXot9VLfcyydmOxHbNi+wblMcY2drEyZf1iZfqY1zuHpY+DLJ1FQAREQAREQAREQAREIFcCclhyHTnJLQIiIAIiIAIiIAIiIAI9ICCHpQeDLBVFQAREQAREQAREQAREIFcCclhyHTnJLQIiIAIiIAIiIAIiIAI9ICCHpQeDLBVFQAREQAREQAREQAREIFcCclhyHTnJLQIiIAIiIAIiIAIiIAI9ICCHpQeDLBVFQAREQAREQAREQAREIFcCclhyHTnJLQIiIAIiIAIiIAIiIAI9ICCHpQeDLBVFQAREQAREQAREQAREIFcCclhyHTnJLQIiIAIiIAIiIAIiIAI9ICCHpQeDLBVFQAREQAREQAREQAREIFcC/wGyUCmaTcXdQAAAAABJRU5ErkJggg==;" vertex="1" parent="1">
          <mxGeometry x="8" y="130" width="812" height="328" as="geometry" />
        </mxCell>
      </root>
    </mxGraphModel>
  </diagram>
</mxfile>
